<svg width="1440" height="900" viewBox="0 0 1440 900" fill="none" xmlns="http://www.w3.org/2000/svg">
<line y1="-1.5" x2="1673.76" y2="-1.5" transform="matrix(0.768019 0.640427 -0.429288 0.903168 -220.826 -108.124)" stroke="#404040" stroke-opacity="0.53" stroke-width="3"/>
<line y1="-1.5" x2="1673.76" y2="-1.5" transform="matrix(0.768019 0.640427 -0.429288 0.903168 -553 178.759)" stroke="#404040" stroke-opacity="0.53" stroke-width="3"/>
<line y1="-1.5" x2="1673.76" y2="-1.5" transform="matrix(0.768019 0.640427 -0.429288 0.903168 -405.383 8.74002)" stroke="#404040" stroke-opacity="0.53" stroke-width="3"/>
<line y1="-1.5" x2="1673.76" y2="-1.5" transform="matrix(0.768019 0.640427 -0.429288 0.903168 -16.4446 -183.381)" stroke="#404040" stroke-opacity="0.53" stroke-width="3"/>
<line y1="-1.5" x2="1673.76" y2="-1.5" transform="matrix(0.768019 0.640427 -0.429288 0.903168 236.43 -227.586)" stroke="#404040" stroke-opacity="0.53" stroke-width="3"/>
<line y1="-1.5" x2="1673.76" y2="-1.5" transform="matrix(0.768019 0.640427 -0.429288 0.903168 459.781 -290.493)" stroke="#404040" stroke-opacity="0.53" stroke-width="3"/>
<line y1="-1.5" x2="1673.76" y2="-1.5" transform="matrix(0.768019 0.640427 -0.429288 0.903168 707.52 -350)" stroke="#404040" stroke-opacity="0.53" stroke-width="3"/>
</svg>
