<svg width="147" height="144" viewBox="0 0 147 144" fill="none" xmlns="http://www.w3.org/2000/svg">
<path d="M62.2773 19.2423C62.2773 19.2423 24.249 25.1925 27.1327 79.3805C27.1432 79.5814 22.7358 82.5076 22.3905 82.8202C19.3172 85.5998 16.7387 89.1596 15.6112 93.3238C11.5961 108.152 25.9509 123.431 37.5592 127.487C41.8952 129.001 46.4783 129.737 51.0704 129.87C80.9226 130.74 120.445 111.766 122.475 74.7118C122.548 73.3823 122.566 72.0514 122.532 70.7236C122.352 63.6879 120.654 56.8358 118.094 50.4736C118.096 50.4738 101.482 9.26436 62.2773 19.2423Z" fill="#A47539"/>
<g style="mix-blend-mode:multiply" opacity="0.5">
<path d="M26.1709 79.9501C26.5822 80.9592 26.9929 82.2487 27.1075 82.9862C27.5967 86.1496 26.5139 89.4165 24.6339 91.7655C22.8488 93.9958 20.2998 95.4426 17.8316 95.9886C16.9984 96.1731 15.9895 96.2679 15.1072 96.2977C16.0373 87.1361 23.4945 81.637 26.1709 79.9501Z" fill="#FEB3A4"/>
</g>
<g style="mix-blend-mode:multiply" opacity="0.5">
<path d="M79.7713 104.032C72.7096 102.514 68.3273 95.0719 69.9831 87.4088C71.639 79.7457 78.706 74.764 85.7676 76.2817C92.8293 77.7995 97.2116 85.242 95.5558 92.9051C93.8999 100.568 86.833 105.55 79.7713 104.032Z" fill="#FEB3A4"/>
</g>
<path opacity="0.3" d="M45.1933 82.5998C45.1933 82.5998 39.1608 76.8601 34.4907 82.2565L45.1933 82.5998Z" fill="#633B1D"/>
<path d="M101.441 111.207C121.512 121.266 139.74 96.0212 133.91 81.8348C130.19 72.7858 119.336 72.0851 113.044 80.3535C109.33 85.2333 106.324 91.4705 104.617 97.4367" fill="#A47539"/>
<path opacity="0.3" d="M117.983 88.6791C115.399 91.309 113.321 95.2092 110.768 97.3853C111.241 93.7452 111.996 89.8581 113.764 86.5776C115.56 83.2456 118.824 80.5003 122.146 80.7256C126.264 81.005 129.652 85.8019 130.086 90.1517C129.827 87.5486 124.593 85.7884 122.596 86.0355C119.465 91.9353 118.25 103.562 118.25 103.562C115.646 96.9809 116.703 91.8038 117.983 88.6791Z" fill="#633B1D"/>
<path d="M38.6406 96.495C35.9363 96.5699 33.3432 95.7961 31.11 93.4745C29.9415 92.2608 28.7565 91.5927 27.0799 92.631C23.0658 95.1174 22.1207 101.329 23.1997 105.494C24.3843 110.064 27.953 113.749 32.0656 116.152C43.1321 122.618 51.6203 121.163 62.9446 117.029C71.8583 113.777 83.9093 107.22 80.8545 95.9346C77.0717 81.9623 60.7687 88.6709 51.57 92.4401C47.6642 94.0419 43.0074 96.3736 38.6406 96.495Z" fill="white"/>
<mask id="mask0" mask-type="alpha" maskUnits="userSpaceOnUse" x="22" y="87" width="60" height="34">
<path d="M38.6398 96.4961C35.9356 96.5709 33.3425 95.7972 31.1093 93.4756C29.9408 92.2619 28.7558 91.5938 27.0792 92.6321C23.0651 95.1185 22.12 101.33 23.199 105.495C24.3836 110.065 27.9522 113.75 32.0649 116.153C43.1313 122.619 51.6196 121.164 62.9439 117.031C71.8576 113.778 83.9085 107.221 80.8538 95.9357C77.071 81.9634 60.768 88.672 51.5693 92.4412C47.6635 94.043 43.0067 96.3747 38.6398 96.4961Z" fill="white"/>
</mask>
<g mask="url(#mask0)">
<path fill-rule="evenodd" clip-rule="evenodd" d="M75.561 112.015L63.976 82.7685L62.3634 83.4077L73.9484 112.654L75.561 112.015ZM51.7565 121.465L43.7546 90.7764L42.0762 91.2143L50.078 121.903L51.7565 121.465ZM27.9406 114.055L32.3559 91.5559L30.6538 91.2217L26.2385 113.721L27.9406 114.055Z" fill="#D1D3D4"/>
</g>
<path d="M51.3636 76.0094C55.9932 72.3659 61.7232 73.1538 64.0898 74.0284C64.1084 74.0353 64.1206 74.0102 64.1077 73.9953C57.7407 66.6491 52.9627 72.2151 51.3331 75.9885C51.3253 76.0067 51.348 76.0217 51.3636 76.0094Z" fill="#2A1200"/>
<path d="M28.8954 73.4243C28.8999 75.7264 29.9417 78.1987 32.6079 77.9145C34.8453 77.6761 35.4166 74.7383 35.4137 73.2921C35.4088 70.7624 34.1416 68.3726 32.293 68.3691C30.3049 68.3653 28.8909 71.1222 28.8954 73.4243Z" fill="#2A1200"/>
<path d="M53.6185 55.6133C57.5743 54.9698 61.8133 56.4482 64.6589 59.4469C65.5764 60.4138 65.8331 62.1286 64.8744 63.2203C63.9888 64.2304 62.3777 64.5393 61.3957 63.503C61.1013 63.1924 60.794 62.898 60.468 62.6251C60.3667 62.5401 60.0852 62.3893 59.9965 62.2638C59.9472 62.2312 59.8989 62.1987 59.8485 62.1671C59.5377 61.9714 59.2182 61.7922 58.891 61.6298C58.7035 61.5369 58.5143 61.4507 58.3227 61.369C58.2623 61.3436 58.2017 61.3193 58.1401 61.2949C57.9719 61.2657 57.7789 61.1747 57.6255 61.1328C57.4255 61.078 57.2249 61.0301 57.0217 60.9878C56.6675 60.9141 56.3098 60.8585 55.9505 60.8224C55.9001 60.8173 55.8507 60.8134 55.8002 60.8095C55.6063 60.8104 55.4129 60.8068 55.2185 60.8146C54.8053 60.8318 54.3942 60.8779 53.9846 60.9437C52.7063 61.1521 51.3807 59.8934 51.3426 58.5109C51.3026 56.989 52.2492 55.8365 53.6185 55.6133Z" fill="#351700"/>
<path d="M27.0609 60.1575C28.4974 58.1804 30.6082 56.883 32.8852 56.5064C33.4997 56.4048 34.2171 56.6404 34.6965 57.0506C35.1688 57.4546 35.5653 58.1667 35.6065 58.8315C35.649 59.5217 35.5128 60.2624 35.0818 60.8051C34.645 61.3554 34.0968 61.7049 33.4296 61.8162C33.3203 61.8341 33.2141 61.8649 33.1053 61.8886C32.7844 61.9993 32.4741 62.1361 32.1714 62.2966C31.8272 62.5297 31.5048 62.7944 31.2032 63.0907C31.105 63.2084 31.001 63.3211 30.9097 63.4463C30.5159 63.9874 29.8845 64.3729 29.2575 64.4574C28.6572 64.5382 27.91 64.3452 27.4463 63.912C26.9657 63.4637 26.5802 62.8421 26.5362 62.1311C26.4921 61.4224 26.6446 60.7302 27.0609 60.1575Z" fill="#351700"/>
<mask id="mask1" mask-type="alpha" maskUnits="userSpaceOnUse" x="0" y="30" width="44" height="65">
<path d="M27.8457 59.7446C29.6958 45.9714 36.5824 35.9327 43.392 34.6907L13.3273 30.5793L0.222191 76.9611L16.4109 94.3061C15.383 86.0833 23.1775 79.3166 27.2033 76.9611C26.6894 73.5692 27.4174 64.0701 27.8457 59.7446Z" fill="#C4C4C4"/>
</mask>
<g mask="url(#mask1)">
<path d="M19.3767 71.4906C21.0159 57.556 33.7699 50.1203 40.006 48.9309C38.7523 42.155 36.0877 42.5712 30.7718 43.6241C12.1985 47.3027 9.19188 63.5644 9.3681 71.8507C16.2805 72.8632 19.0268 72.8278 19.3767 71.4906Z" fill="#351700"/>
<ellipse rx="4.99509" ry="2.62033" transform="matrix(1.01789 -0.047841 0.15752 0.970808 14.4419 71.6757)" fill="#451E00"/>
<path opacity="0.6" fill-rule="evenodd" clip-rule="evenodd" d="M19.4279 71.0851C21.2639 57.4117 33.8308 50.1087 40.0061 48.9309C40.1942 47.268 35.5815 48.018 30.567 49.8724C17.6756 54.6399 14.1211 61.7961 14.2973 70.0824C14.3174 70.0854 14.3374 70.0883 14.3573 70.0913C14.4024 71.5056 14.5367 73.3779 14.8546 74.2195C17.6627 74.0875 19.7543 72.8416 19.5263 71.4367C19.507 71.3178 19.474 71.2004 19.4279 71.0851Z" fill="#240F00"/>
<path d="M25.5532 75.9764C26.7947 61.8122 39.1787 53.8579 45.2998 52.4455C43.8801 45.6263 41.2621 46.1367 36.0452 47.38C17.818 51.7242 15.2899 68.2904 15.6873 76.6748C22.5351 77.4696 25.244 77.3421 25.5532 75.9764Z" fill="#351700"/>
<ellipse rx="4.95505" ry="2.6381" transform="matrix(1.01118 -0.0830507 0.180387 0.971161 20.689 76.3284)" fill="#451E00"/>
<path opacity="0.6" fill-rule="evenodd" clip-rule="evenodd" d="M25.5926 75.5636C27.0357 61.6576 39.2384 53.844 45.2998 52.4455C45.4405 50.7555 40.9093 51.6687 36.0115 53.7137C23.42 58.9708 20.1058 66.3355 20.5031 74.72C20.5231 74.7223 20.543 74.7247 20.5628 74.727C20.6455 76.1576 20.8285 78.0489 21.1648 78.8904C23.932 78.6631 25.9622 77.3318 25.6994 75.9169C25.6771 75.797 25.6413 75.679 25.5926 75.5636Z" fill="#240F00"/>
<path d="M31.194 86.1862C28.6239 71.7532 38.0585 60.3278 43.3844 57.1849C40.2692 50.8094 37.9667 52.0605 33.438 54.7785C17.615 64.275 19.6194 81.4613 22.1946 89.6833C28.7775 88.5279 31.2654 87.6317 31.194 86.1862Z" fill="#351700"/>
<ellipse rx="4.91017" ry="2.65771" transform="matrix(0.927751 -0.373201 0.420227 0.907419 26.759 87.918)" fill="#451E00"/>
<path opacity="0.6" fill-rule="evenodd" clip-rule="evenodd" d="M31.1222 85.7648C28.8075 71.5312 38.1104 60.2972 43.3844 57.185C43.0709 55.465 39.0935 57.6601 35.0725 61.0843C24.7354 69.8874 23.5877 78.15 26.163 86.372C26.1822 86.3686 26.2013 86.3653 26.2203 86.362C26.6736 87.7606 27.3414 89.5887 27.8758 90.3297C30.3917 89.3177 31.9312 87.4175 31.3144 86.0856C31.2622 85.9728 31.1978 85.8657 31.1222 85.7648Z" fill="#240F00"/>
<path opacity="0.5" d="M11.5333 59.1438C11.4786 58.7235 12.6576 56.5149 13.2539 55.4631L22.0487 58.812L29.5889 66.2836C29.4283 69.1536 28.564 75.1152 26.3917 76.0013C24.2193 76.8875 21.8865 76.5564 20.5449 76.2282C20.0034 75.5445 19.0862 69.8504 19.7082 64.4902C16.6452 64.1347 11.6017 59.6691 11.5333 59.1438Z" fill="#220F01"/>
<path d="M18.5908 55.3053C21.0544 41.4927 34.2275 34.8274 40.5232 34.0103C39.674 27.1719 36.9894 27.4292 31.6203 28.1646C12.8615 30.7339 8.89456 46.7884 8.57846 55.0705C15.4185 56.4917 18.1621 56.6194 18.5908 55.3053Z" fill="#351700"/>
<ellipse rx="4.99509" ry="2.62032" transform="matrix(1.01894 0.0126815 0.0996001 0.978448 13.6539 55.197)" fill="#451E00"/>
<path opacity="0.6" fill-rule="evenodd" clip-rule="evenodd" d="M18.6662 54.9033C21.3109 41.3632 34.2891 34.8193 40.5235 34.0102C40.81 32.3615 36.1608 32.8362 31.045 34.3897C17.8933 38.3833 13.9202 45.3159 13.6041 53.598C13.624 53.6021 13.6438 53.6063 13.6636 53.6104C13.6246 55.0249 13.6475 56.9019 13.9149 57.7608C16.7259 57.7958 18.8877 56.6763 18.7436 55.2603C18.7314 55.1405 18.7053 55.0212 18.6662 54.9033Z" fill="#240F00"/>
<path d="M24.4905 60.1498C26.5709 46.0844 39.4053 38.8793 45.5995 37.833C44.5871 30.9415 41.9435 31.2955 36.6619 32.2269C18.209 35.4811 14.7017 51.868 14.6005 60.2613C21.3891 61.4612 24.1007 61.4948 24.4905 60.1498Z" fill="#351700"/>
<ellipse rx="4.95505" ry="2.6381" transform="matrix(1.01432 -0.0228645 0.122405 0.980158 19.614 60.2124)" fill="#451E00"/>
<path opacity="0.6" fill-rule="evenodd" clip-rule="evenodd" d="M24.5544 59.7403C26.8206 45.9444 39.4657 38.8691 45.5995 37.8329C45.8403 36.1543 41.2629 36.7968 36.2522 38.5474C23.3709 43.0476 19.6252 50.2025 19.524 58.5958C19.5438 58.5993 19.5635 58.6028 19.5831 58.6063C19.5807 60.0393 19.651 61.9381 19.9368 62.7981C22.7127 62.7355 24.8183 61.5271 24.64 60.099C24.6249 59.9781 24.5961 59.8583 24.5544 59.7403Z" fill="#240F00"/>
<path d="M31.0569 70.6766C29.3483 56.1165 39.4447 45.2714 44.9478 42.4503C42.2167 35.9011 39.8439 37.0132 35.1618 39.4576C18.8029 47.9978 19.7832 65.2728 21.8658 73.6332C28.5057 72.8707 31.0423 72.1238 31.0569 70.6766Z" fill="#351700"/>
<ellipse rx="4.91016" ry="2.65771" transform="matrix(0.948273 -0.317456 0.365607 0.93077 26.5268 72.1421)" fill="#451E00"/>
<path opacity="0.6" fill-rule="evenodd" clip-rule="evenodd" d="M31.0104 70.2516C29.5451 55.9056 39.4985 45.2439 44.948 42.4504C44.7372 40.7148 40.6365 42.6698 36.4193 45.8493C25.5777 54.0231 23.9414 62.2029 26.024 70.5633C26.0433 70.5611 26.0626 70.5589 26.0819 70.5567C26.4513 71.9798 27.0093 73.8443 27.4988 74.6157C30.0704 73.7548 31.72 71.9494 31.1833 70.5832C31.1379 70.4675 31.0799 70.3568 31.0104 70.2516Z" fill="#240F00"/>
<path opacity="0.5" d="M15.897 35.847L17.4387 34.3053V33.1489L24.6337 35.3331L35.1692 49.723L28.3597 58.5883C23.7343 59.4105 19.9227 57.8174 18.5951 56.918L21.8071 44.9692C18.5951 44.1983 18.2096 40.9863 18.0812 40.4724C17.9784 40.0612 18.6379 38.5023 18.9805 37.7743C18.261 37.4659 16.625 36.361 15.897 35.847Z" fill="#220F01"/>
</g>
<path d="M25.46 36.8361C34.0841 25.7689 48.8453 26.0204 54.7948 28.2354C57.2346 21.7909 54.7401 20.7658 49.6483 18.9109C31.8579 12.4303 20.8581 24.7789 16.714 31.9566C22.1006 36.4052 24.4676 37.7983 25.46 36.8361Z" fill="#351700"/>
<ellipse rx="4.99509" ry="2.62033" transform="matrix(0.895293 0.486663 -0.368463 0.911875 21.1438 34.4367)" fill="#451E00"/>
<path opacity="0.6" fill-rule="evenodd" clip-rule="evenodd" d="M25.7139 36.5157C34.3711 25.774 48.9033 26.042 54.7948 28.2354C55.8175 26.9109 51.484 25.1614 46.2344 24.1483C32.7388 21.5437 25.9899 25.8214 21.8458 32.9992C21.8615 33.0121 21.8771 33.025 21.8926 33.0379C21.1981 34.2708 20.3425 35.9416 20.1782 36.8261C22.6481 38.1687 25.0826 38.1873 25.6158 36.8676C25.6609 36.7559 25.6935 36.6383 25.7139 36.5157Z" fill="#240F00"/>
<path d="M28.4171 43.8737C36.8202 32.4041 51.5337 32.0202 57.5005 33.985C59.8207 27.4173 57.3174 26.4969 52.2115 24.8563C34.3721 19.1241 23.6237 31.9812 19.6178 39.3575C25.0622 43.5864 27.4448 44.8814 28.4171 43.8737Z" fill="#351700"/>
<ellipse rx="4.95505" ry="2.6381" transform="matrix(0.907801 0.453072 -0.349091 0.924028 24.0747 41.6536)" fill="#451E00"/>
<path opacity="0.6" fill-rule="evenodd" clip-rule="evenodd" d="M28.6648 43.5415C37.1064 32.3968 51.5921 32.0393 57.5007 33.9849C58.497 32.6126 54.1486 31.045 48.9001 30.2553C35.4071 28.225 28.7556 32.8055 24.7497 40.1818C24.7656 40.1941 24.7813 40.2064 24.797 40.2186C24.1262 41.4849 23.3024 43.1972 23.1539 44.0912C25.6382 45.3311 28.0645 45.2449 28.5731 43.8986C28.6161 43.7846 28.6466 43.6653 28.6648 43.5415Z" fill="#240F00"/>
<path d="M27.9491 55.5288C33.2319 41.8536 47.2221 36.9726 53.4058 37.0453C54.0462 29.9784 51.4286 29.8549 46.1469 29.8321C27.6931 29.7523 20.4995 45.4889 18.4404 53.855C24.6689 56.2789 27.261 56.8019 27.9491 55.5288Z" fill="#351700"/>
<ellipse rx="4.91016" ry="2.65772" transform="matrix(0.98684 0.161697 -0.110942 0.993827 23.2588 54.7111)" fill="#451E00"/>
<path opacity="0.6" fill-rule="evenodd" clip-rule="evenodd" d="M28.1061 55.131C33.5041 41.7588 47.2824 36.9733 53.4058 37.0453C54.0291 35.4119 49.49 35.2276 44.2765 36.0719C30.8735 38.2425 25.6095 44.7138 23.5504 53.08C23.5685 53.0871 23.5866 53.0941 23.6046 53.1012C23.2673 54.5322 22.8909 56.4417 22.9639 57.3524C25.64 57.7908 27.9415 56.9638 28.1043 55.505C28.1181 55.3814 28.1185 55.2565 28.1061 55.131Z" fill="#240F00"/>
<path d="M117.491 68.8707C114.303 53.2792 99.0625 44.4746 91.8427 42.895C92.6295 35.3971 95.7058 35.9695 101.864 37.3595C123.38 42.2157 128.347 60.4557 128.932 69.6803C121.15 70.5263 118.016 70.3748 117.491 68.8707Z" fill="#351700"/>
<ellipse rx="5.8366" ry="2.82659" transform="matrix(-0.996701 -0.0811622 -0.0811621 0.996701 123.133 69.2783)" fill="#451E00"/>
<path opacity="0.6" fill-rule="evenodd" clip-rule="evenodd" d="M117.394 68.4164C114.006 53.1081 98.992 44.4592 91.8426 42.895C91.4707 41.0348 96.7988 42.0585 102.69 44.3292C117.833 50.1666 122.562 58.2845 123.146 67.5092C123.124 67.5117 123.101 67.5141 123.079 67.5166C123.161 69.0905 123.186 71.1709 122.903 72.0955C119.69 71.8339 117.188 70.3605 117.315 68.8046C117.326 68.6728 117.352 68.5432 117.394 68.4164Z" fill="#240F00"/>
<path d="M106.767 76.2697C110.302 60.7532 100.058 46.4407 94.1348 42.0205C97.9478 35.5168 100.513 37.3086 105.548 41.1176C123.138 54.426 120.129 73.0892 116.852 81.7318C109.415 79.2885 106.624 77.8566 106.767 76.2697Z" fill="#351700"/>
<ellipse rx="5.8366" ry="2.82659" transform="matrix(-0.874222 -0.485527 -0.485527 0.874222 111.736 78.9707)" fill="#451E00"/>
<path opacity="0.6" fill-rule="evenodd" clip-rule="evenodd" d="M106.866 75.816C110.102 60.4749 100 46.3975 94.1348 42.0204C94.5643 40.1726 98.9941 43.3054 103.421 47.8061C114.803 59.3764 115.757 68.7227 112.48 77.3653C112.458 77.3582 112.436 77.3511 112.415 77.3441C111.84 78.8116 111.003 80.7163 110.364 81.4417C107.546 79.8766 105.876 77.5016 106.634 76.1368C106.698 76.0213 106.776 75.9142 106.866 75.816Z" fill="#240F00"/>
<path d="M95.7777 79.129C99.5826 63.6764 89.5897 49.1877 83.7445 44.6649C87.6703 38.2286 90.204 40.0648 95.1715 43.961C112.527 57.5737 109.194 76.1818 105.766 84.7659C98.3732 82.1935 95.6076 80.7131 95.7777 79.129Z" fill="#351700"/>
<ellipse rx="5.8366" ry="2.82659" transform="matrix(-0.865631 -0.500682 -0.500682 0.865632 100.7 81.9162)" fill="#451E00"/>
<path opacity="0.6" fill-rule="evenodd" clip-rule="evenodd" d="M95.885 78.6771C99.388 63.3947 89.5326 49.1435 83.7444 44.6649C84.206 42.8249 88.5806 46.0343 92.9287 50.6114C104.107 62.3783 104.898 71.7398 101.471 80.3239C101.449 80.3164 101.428 80.309 101.406 80.3016C100.806 81.7589 99.9361 83.6488 99.2844 84.3629C96.494 82.749 94.8656 80.3452 95.6472 78.9939C95.7134 78.8794 95.793 78.7737 95.885 78.6771Z" fill="#240F00"/>
<path d="M86.0861 81.1813C92.4564 66.5978 85.0652 50.6243 80.0716 45.1759C85.032 39.4985 87.2176 41.7377 91.4524 46.4199C106.248 62.7787 99.8077 80.5519 94.9742 88.4305C88.1243 84.6416 85.6498 82.7137 86.0861 81.1813Z" fill="#351700"/>
<ellipse rx="5.83659" ry="2.82659" transform="matrix(-0.768188 -0.640224 -0.640224 0.768188 90.4642 84.7628)" fill="#451E00"/>
<path opacity="0.6" fill-rule="evenodd" clip-rule="evenodd" d="M86.2686 80.7541C92.3124 66.2871 85.0165 50.5711 80.0716 45.1758C80.8386 43.4407 84.6055 47.3455 88.1145 52.5937C97.1353 66.0857 96.3278 75.4458 91.4942 83.3244C91.4742 83.3134 91.4543 83.3024 91.4345 83.2915C90.5958 84.6258 89.4179 86.3409 88.6545 86.9341C86.1782 84.8704 84.9811 82.2253 85.9805 81.026C86.0652 80.9245 86.1616 80.8338 86.2686 80.7541Z" fill="#240F00"/>
<path d="M88.1037 75.4193C88.5149 74.597 88.789 73.021 88.8746 72.3357C96.455 63.4705 112.412 41.8343 114.057 42.6566C115.702 43.4788 120.567 48.2669 121.766 49.5946L115.599 53.5774C116.37 56.2755 116.113 60.9009 114.057 61.9287C112.412 62.751 108.575 62.8709 106.862 62.8281L106.22 66.9395C106.005 67.6247 105.14 69.098 103.393 69.5091C101.646 69.9203 98.7249 69.3378 97.4829 68.9952C97.5857 70.0231 96.5835 73.021 96.0696 74.3914C93.7055 75.5221 89.774 75.5478 88.1037 75.4193Z" fill="#220F01"/>
<path d="M111.626 47.4246C104.368 33.2618 87.3234 28.8727 79.9446 29.2898C78.6892 21.8559 81.8062 21.5813 88.1115 21.2666C110.142 20.1671 119.824 36.4035 122.864 45.1325C115.595 48.037 112.536 48.7323 111.626 47.4246Z" fill="#351700"/>
<ellipse rx="5.83661" ry="2.82659" transform="matrix(-0.981891 0.189447 0.189448 0.981891 117.17 46.3023)" fill="#451E00"/>
<path opacity="0.6" fill-rule="evenodd" clip-rule="evenodd" d="M111.411 47.0131C104.036 33.1766 87.2514 28.8768 79.9445 29.2898C79.0867 27.5977 84.4941 27.1532 90.7781 27.7587C106.933 29.3155 113.668 35.8654 116.708 44.5945C116.687 44.6029 116.666 44.6113 116.645 44.6198C117.147 46.1137 117.729 48.1112 117.705 49.0777C114.54 49.6884 111.734 48.9408 111.439 47.408C111.414 47.2782 111.404 47.1463 111.411 47.0131Z" fill="#240F00"/>
<path d="M103.282 57.4315C102.521 41.5356 88.8099 30.4994 81.9174 27.8319C83.8441 20.5431 86.7963 21.5803 92.6688 23.8976C113.187 31.994 115.3 50.7797 114.463 59.985C106.644 59.6283 103.57 58.9983 103.282 57.4315Z" fill="#351700"/>
<ellipse rx="5.8366" ry="2.82659" transform="matrix(-0.972488 -0.232954 -0.232955 0.972488 108.794 58.6989)" fill="#451E00"/>
<path opacity="0.6" fill-rule="evenodd" clip-rule="evenodd" d="M103.256 56.9677C102.254 41.321 88.7428 30.4733 81.9175 27.8318C81.8351 25.9366 86.9434 27.7648 92.4165 30.9115C106.487 39.0008 109.916 47.7476 109.079 56.9528C109.057 56.9518 109.034 56.9507 109.011 56.9497C108.852 58.5177 108.557 60.5773 108.136 61.4477C105.001 60.6968 102.755 58.8573 103.118 57.3392C103.149 57.2106 103.195 57.0866 103.256 56.9677Z" fill="#240F00"/>
<path d="M93.4644 63.1364C92.9804 47.2296 79.464 35.9562 72.619 33.1691C74.6724 25.915 77.6061 27.0035 83.4373 29.4227C103.811 37.8753 105.597 56.695 104.6 65.8842C96.7875 65.3914 93.7259 64.708 93.4644 63.1364Z" fill="#351700"/>
<ellipse rx="5.8366" ry="2.82659" transform="matrix(-0.968282 -0.24986 -0.24986 0.968282 98.954 64.4996)" fill="#451E00"/>
<path opacity="0.6" fill-rule="evenodd" clip-rule="evenodd" d="M93.4463 62.6724C92.7172 47.0106 79.397 35.9291 72.6188 33.1691C72.5694 31.2727 77.6451 33.1897 83.0626 36.4312C96.9898 44.7644 100.266 53.5696 99.2692 62.7588C99.2465 62.7574 99.2238 62.756 99.2013 62.7546C99.0144 64.3195 98.6837 66.3736 98.2477 67.2365C95.1265 66.4311 92.9124 64.5528 93.3025 63.0413C93.3355 62.9133 93.3838 62.7902 93.4463 62.6724Z" fill="#240F00"/>
<path d="M84.6796 67.7156C86.9 51.9571 75.4911 38.5549 69.218 34.6474C72.4717 27.8466 75.1783 29.4167 80.5148 32.7898C99.16 44.5749 97.7283 63.4248 95.1877 72.312C87.5721 70.5015 84.6707 69.3088 84.6796 67.7156Z" fill="#351700"/>
<ellipse rx="5.8366" ry="2.82659" transform="matrix(-0.911887 -0.410442 -0.410442 0.911887 89.8587 69.99)" fill="#451E00"/>
<path opacity="0.6" fill-rule="evenodd" clip-rule="evenodd" d="M84.741 67.2553C86.6783 51.6967 75.4303 38.5169 69.2182 34.6475C69.4912 32.7702 74.1683 35.52 78.9575 39.6333C91.2699 50.2076 93.0053 59.4408 90.4648 68.3279C90.4426 68.3227 90.4205 68.3174 90.3985 68.3122C89.9489 69.8228 89.2748 71.7911 88.6987 72.5676C85.7593 71.2445 83.8958 69.018 84.5366 67.5945C84.5908 67.4739 84.6593 67.3607 84.741 67.2553Z" fill="#240F00"/>
<path d="M103.136 24.5406C102.417 24.1295 100.01 23.4271 98.8961 23.1273L82.836 50.4939C84.1722 52.1385 84.8488 57.4319 85.0201 59.873C88.8746 59.4876 92.8575 57.0465 93.4999 55.7616C94.0138 54.7338 90.5448 47.496 88.7461 44.8407C94.2708 45.3546 96.9689 42.1426 97.6113 40.6008C98.1252 39.3674 96.6691 36.9177 95.5556 35.0761C102.237 32.7121 103.393 27.0674 103.136 24.5406Z" fill="#220F01"/>
<path d="M91.2742 31.9693C78.9896 21.8526 61.6035 24.5922 54.9968 27.9049C50.8929 21.5806 53.6447 20.091 59.3067 17.2985C79.089 7.54196 94.4224 18.5989 100.678 25.4033C95.16 30.9554 92.6287 32.8081 91.2742 31.9693Z" fill="#351700"/>
<ellipse rx="5.8366" ry="2.82659" transform="matrix(-0.825946 0.56375 0.56375 0.825945 95.9168 28.7379)" fill="#451E00"/>
<path opacity="0.6" fill-rule="evenodd" clip-rule="evenodd" d="M90.9133 31.6769C78.6514 21.9061 61.539 24.6246 54.9969 27.9049C53.5378 26.6926 58.3241 24.1375 64.332 22.198C79.777 17.2121 88.5592 20.5494 94.815 27.3538C94.799 27.37 94.7829 27.3861 94.767 27.4022C95.8211 28.5739 97.1484 30.176 97.5102 31.0726C94.8478 32.8898 91.976 33.3177 91.096 32.0283C91.0214 31.9191 90.9606 31.8016 90.9133 31.6769Z" fill="#240F00"/>
<path d="M86.7734 42.1922C75.6575 30.8037 58.0769 31.643 51.1502 34.2201C47.7559 27.4883 50.6529 26.3057 56.5841 24.1433C77.3073 16.5881 91.3521 29.2417 96.8337 36.6841C90.7462 41.6053 88.0291 43.1729 86.7734 42.1922Z" fill="#351700"/>
<ellipse rx="5.83659" ry="2.82659" transform="matrix(-0.882178 0.470916 0.470917 0.882178 91.7387 39.483)" fill="#451E00"/>
<path opacity="0.6" fill-rule="evenodd" clip-rule="evenodd" d="M86.4465 41.8627C75.3158 30.8203 58.0094 31.6681 51.1501 34.2202C49.831 32.8568 54.866 30.8355 61.0487 29.5586C76.9432 26.276 85.312 30.5453 90.7935 37.9876C90.7758 38.0019 90.7582 38.0162 90.7407 38.0304C91.6615 39.3095 92.8075 41.0461 93.07 41.9766C90.2263 43.4946 87.3251 43.6088 86.59 42.2316C86.5278 42.1151 86.48 41.9917 86.4465 41.8627Z" fill="#240F00"/>
<path d="M82.4507 54.7339C74.8445 40.7551 57.6966 36.7893 50.3303 37.3889C48.8913 29.9884 52.0005 29.6368 58.2961 29.1661C80.2922 27.5215 90.3737 43.5132 93.6285 52.1642C86.4336 55.2478 83.3928 56.0187 82.4507 54.7339Z" fill="#351700"/>
<ellipse rx="5.83659" ry="2.82659" transform="matrix(-0.9769 0.213697 0.213697 0.9769 87.9651 53.4747)" fill="#451E00"/>
<path opacity="0.6" fill-rule="evenodd" clip-rule="evenodd" d="M82.2254 54.3276C74.5109 40.6781 57.6247 36.7951 50.3302 37.3889C49.4309 35.7186 54.8256 35.1403 61.1227 35.5901C77.3114 36.7464 84.2065 43.1277 87.4614 51.7788C87.4404 51.7877 87.4196 51.7967 87.3988 51.8057C87.9378 53.2867 88.5691 55.2692 88.5691 56.236C85.4201 56.9248 82.5969 56.247 82.2633 54.722C82.235 54.5928 82.2226 54.461 82.2254 54.3276Z" fill="#240F00"/>
<path fill-rule="evenodd" clip-rule="evenodd" d="M13.1955 70.4447L27.3795 69.9349L27.524 66.8983L13.1309 67.5535L13.1955 70.4447Z" fill="white"/>
<path fill-rule="evenodd" clip-rule="evenodd" d="M63.7915 52.3604C71.6572 53.5997 77.1204 61.6605 75.7163 70.5775C74.3122 79.4945 66.6365 85.485 58.7708 84.2456C50.9052 83.0063 45.442 74.9456 46.8461 66.0286C48.2502 57.1115 55.9258 51.121 63.7915 52.3604ZM78.7954 67.4495C78.6451 58.5864 72.7534 50.8449 64.2413 49.5037C54.6003 47.9846 45.6348 55.3124 44.0176 65.5829C44.0173 65.5849 44.0169 65.587 44.0166 65.5891C43.719 65.4692 43.3945 65.3539 43.0484 65.2532C41.9962 64.9471 40.6712 64.7595 39.2919 65.0475C39.1157 61.433 38.0649 58.1141 36.355 55.4931C34.2295 52.2349 31.0288 49.9913 27.2233 49.7922C23.4237 49.5933 19.9519 51.4813 17.4031 54.4785C14.8536 57.4766 13.1542 61.6524 12.8313 66.2907C12.5084 70.9286 13.6155 75.2608 15.7393 78.5163C17.8648 81.7744 21.0655 84.018 24.871 84.2172C28.6706 84.416 32.1424 82.528 34.6911 79.5309C37.1755 76.6095 38.8525 72.5699 39.2355 68.0738C40.2268 67.6681 41.2779 67.7495 42.2479 68.0316C42.8523 68.2074 43.3803 68.451 43.7647 68.657C43.6973 77.7271 49.6494 85.736 58.321 87.1024C67.9621 88.6215 76.9276 81.2936 78.5448 71.0232C78.5774 70.8159 78.6068 70.6089 78.6331 70.4022L103.623 66.3755C108.312 65.7268 112.991 65.942 116.447 67.1026C119.914 68.2668 121.743 72.5496 121.798 75.2093L124.662 75.1404C124.57 70.7184 121.36 65.7027 117.358 64.3588C113.35 63.0127 108.19 62.8245 103.226 63.5132L103.211 63.5154L78.7954 67.4495ZM33.9617 57.0883C35.7067 59.7632 36.6894 63.4535 36.406 67.5244C36.1226 71.595 34.6343 75.1655 32.5204 77.6513C30.4056 80.1381 27.7379 81.4716 25.0277 81.3298C22.3232 81.1882 19.8759 79.5934 18.1326 76.9211C16.3876 74.2461 15.4049 70.5558 15.6883 66.4849C15.9717 62.4143 17.46 58.8439 19.5739 56.3581C21.6887 53.8713 24.3563 52.5378 27.0666 52.6796C29.7711 52.8211 32.2183 54.416 33.9617 57.0883Z" fill="white"/>
</svg>
