<svg width="193" height="193" viewBox="0 0 193 193" fill="none" xmlns="http://www.w3.org/2000/svg">
<path d="M84.5156 41.43C84.5156 41.43 46.4583 47.3848 49.3442 101.614C49.3547 101.815 44.9439 104.744 44.5984 105.057C41.5227 107.838 38.9422 111.401 37.8138 115.568C33.7957 130.408 48.1615 145.699 59.7787 149.757C64.1179 151.273 68.7046 152.009 73.3002 152.143C103.175 153.013 142.728 134.025 144.76 96.942C144.832 95.6115 144.85 94.2796 144.816 92.9507C144.636 85.9096 142.937 79.0523 140.375 72.6852C140.377 72.6855 123.75 31.4444 84.5156 41.43Z" fill="#A47539"/>
<g style="mix-blend-mode:multiply" opacity="0.5">
<path d="M48.3824 102.184C48.7941 103.194 49.2051 104.485 49.3198 105.223C49.8094 108.388 48.7257 111.658 46.8442 114.009C45.0578 116.241 42.5068 117.689 40.0368 118.235C39.2029 118.42 38.1932 118.515 37.3102 118.544C38.241 109.376 45.704 103.872 48.3824 102.184Z" fill="#FEB3A4"/>
</g>
<g style="mix-blend-mode:multiply" opacity="0.5">
<path d="M102.022 126.285C94.9552 124.766 90.5695 117.317 92.2267 109.648C93.8838 101.98 100.956 96.994 108.023 98.5129C115.09 100.032 119.476 107.48 117.819 115.149C116.162 122.818 109.089 127.804 102.022 126.285Z" fill="#FEB3A4"/>
</g>
<path opacity="0.3" d="M67.4188 104.836C67.4188 104.836 61.3817 99.092 56.708 104.492Z" fill="#633B1D"/>
<path d="M123.711 133.465C143.796 143.532 162.039 118.268 156.204 104.07C152.482 95.0144 141.62 94.3132 135.322 102.588C131.606 107.471 128.598 113.713 126.889 119.684" fill="#A47539"/>
<path opacity="0.3" d="M140.263 110.92C137.677 113.552 135.598 117.455 133.043 119.632C133.516 115.99 134.271 112.1 136.041 108.816C137.838 105.482 141.104 102.735 144.429 102.96C148.55 103.24 151.941 108.04 152.376 112.393C152.116 109.788 146.879 108.027 144.879 108.274C141.746 114.178 140.53 125.814 140.53 125.814C137.924 119.228 138.982 114.047 140.263 110.92Z" fill="#633B1D"/>
<path d="M60.8614 118.742C58.1551 118.817 55.56 118.043 53.3251 115.719C52.1557 114.505 50.9698 113.836 49.2919 114.875C45.2748 117.363 44.329 123.58 45.4088 127.748C46.5943 132.322 50.1657 136.009 54.2814 138.414C65.3564 144.885 73.8511 143.429 85.1841 139.292C94.1046 136.037 106.165 129.475 103.108 118.181C99.322 104.198 83.0065 110.912 73.8008 114.684C69.892 116.287 65.2316 118.621 60.8614 118.742Z" fill="white"/>
<mask id="mask0" mask-type="alpha" maskUnits="userSpaceOnUse" x="44" y="109" width="60" height="34">
<path d="M60.8614 118.742C58.155 118.817 55.5599 118.043 53.325 115.719C52.1556 114.505 50.9697 113.836 49.2918 114.875C45.2746 117.363 44.3289 123.58 45.4087 127.748C46.5942 132.322 50.1656 136.009 54.2813 138.414C65.3563 144.885 73.8511 143.429 85.1841 139.292C94.1046 136.037 106.165 129.475 103.108 118.181C99.322 104.198 83.0065 110.912 73.8007 114.684C69.8919 116.287 65.2315 118.621 60.8614 118.742Z" fill="white"/>
</mask>
<g mask="url(#mask0)">
<path fill-rule="evenodd" clip-rule="evenodd" d="M97.8097 134.274L86.2159 105.005L84.602 105.645L96.1958 134.914L97.8097 134.274ZM73.9869 143.731L65.979 113.019L64.2993 113.457L72.3072 144.169L73.9869 143.731ZM50.1528 136.316L54.5715 113.799L52.8681 113.465L48.4494 135.981L50.1528 136.316Z" fill="#D1D3D4"/>
</g>
<path d="M74.4496 97.625C78.3326 95.0713 82.7702 95.3045 85.3227 95.9498C85.6108 96.0226 85.8413 95.6588 85.6336 95.4463C80.1282 89.8115 75.9027 93.7732 74.0239 97.2712C73.8833 97.533 74.2013 97.7882 74.4496 97.625Z" fill="black"/>
<path d="M51.1092 95.6536C51.1136 97.9574 52.1563 100.432 54.8246 100.147C57.0638 99.9085 57.6354 96.9685 57.6326 95.5212C57.6277 92.9897 56.3595 90.598 54.5094 90.5945C52.5197 90.5907 51.1047 93.3497 51.1092 95.6536Z" fill="black"/>
<path d="M75.8509 77.8286C79.8097 77.1846 84.0519 78.6642 86.8996 81.6652C87.8179 82.6328 88.0748 84.3489 87.1153 85.4415C86.229 86.4523 84.6167 86.7615 83.6339 85.7244C83.3393 85.4135 83.0318 85.1189 82.7056 84.8458C82.6041 84.7608 82.3224 84.6098 82.2337 84.4842C82.1844 84.4516 82.136 84.419 82.0855 84.3875C81.7745 84.1916 81.4548 84.0123 81.1274 83.8497C80.9397 83.7567 80.7504 83.6705 80.5586 83.5888C80.4981 83.5633 80.4375 83.539 80.3758 83.5146C80.2075 83.4853 80.0144 83.3942 79.8609 83.3523C79.6607 83.2975 79.4599 83.2496 79.2566 83.2072C78.9022 83.1334 78.5442 83.0778 78.1846 83.0417C78.1342 83.0366 78.0847 83.0327 78.0341 83.0288C77.8402 83.0297 77.6466 83.0261 77.4521 83.0339C77.0386 83.0511 76.6271 83.0973 76.2172 83.1631C74.9379 83.3717 73.6113 82.112 73.5731 80.7284C73.5332 79.2054 74.4804 78.052 75.8509 77.8286Z" fill="black"/>
<path d="M49.2717 82.3765C50.7093 80.3979 52.8217 79.0995 55.1005 78.7227C55.7155 78.621 56.4334 78.8568 56.9131 79.2673C57.3859 79.6716 57.7826 80.3842 57.8239 81.0495C57.8664 81.7403 57.7301 82.4815 57.2988 83.0246C56.8616 83.5754 56.313 83.9252 55.6453 84.0365C55.5359 84.0544 55.4296 84.0852 55.3208 84.109C54.9995 84.2197 54.689 84.3567 54.3862 84.5172C54.0416 84.7505 53.719 85.0155 53.4171 85.312C53.3189 85.4298 53.2148 85.5426 53.1234 85.6678C52.7294 86.2093 52.0974 86.5951 51.4699 86.6797C50.8692 86.7605 50.1215 86.5674 49.6574 86.1339C49.1764 85.6852 48.7906 85.0632 48.7466 84.3517C48.7024 83.6424 48.855 82.9496 49.2717 82.3765Z" fill="black"/>
<mask id="mask1" mask-type="alpha" maskUnits="userSpaceOnUse" x="18" y="49" width="50" height="73">
<path d="M50.0316 82.7127C52.1172 67.2 59.8804 55.8935 67.5566 54.4946L33.6652 49.864L18.8921 102.104L37.1413 121.639C35.9826 112.378 44.7693 104.757 49.3074 102.104C48.7281 98.2833 49.5488 87.5846 50.0316 82.7127Z" fill="#C4C4C4"/>
</mask>
<g mask="url(#mask1)">
<path d="M40.4855 95.9421C42.3333 80.2477 56.7107 71.8729 63.7405 70.5333C62.3273 62.9016 59.3235 63.3704 53.331 64.5563C32.3937 68.6994 29.0043 87.0149 29.203 96.3478C36.9952 97.4882 40.091 97.4483 40.4855 95.9421Z" fill="black"/>
<ellipse rx="5.63086" ry="2.95133" transform="matrix(1.0179 -0.0477997 0.157655 0.970797 34.9215 96.1507)" fill="#2D2D2D"/>
<path opacity="0.6" fill-rule="evenodd" clip-rule="evenodd" d="M40.5424 95.4827C42.6134 80.0841 56.7786 71.8597 63.7395 70.5331C63.9516 68.6603 58.7517 69.505 53.0989 71.5936C38.5667 76.9632 34.5598 85.0233 34.7585 94.3561C34.7816 94.3595 34.8046 94.3629 34.8275 94.3663C34.8784 95.9592 35.0298 98.0677 35.3881 99.0155C38.5536 98.8668 40.9114 97.4636 40.6544 95.8813C40.6325 95.7465 40.5949 95.6134 40.5424 95.4827Z" fill="#2D2D2D"/>
<path d="M47.4474 100.995C48.847 85.0415 62.8072 76.0825 69.7074 74.4919C68.1069 66.8114 65.1557 67.3862 59.2749 68.7866C38.7277 73.6794 35.8779 92.3378 36.3258 101.781C44.0452 102.676 47.0988 102.533 47.4474 100.995Z" fill="black"/>
<ellipse rx="5.58569" ry="2.97131" transform="matrix(1.01119 -0.0829778 0.180543 0.971141 41.9639 101.391)" fill="#2D2D2D"/>
<path opacity="0.6" fill-rule="evenodd" clip-rule="evenodd" d="M47.4908 100.527C49.1186 84.8665 62.8735 76.0669 69.7061 74.4918C69.8648 72.5884 64.7568 73.6169 59.2355 75.9202C45.0414 81.8413 41.3054 90.1361 41.7533 99.5795C41.7762 99.5821 41.799 99.5848 41.8217 99.5875C41.9149 101.199 42.1212 103.329 42.5004 104.276C45.6198 104.02 47.9084 102.521 47.6121 100.927C47.5868 100.792 47.5461 100.658 47.4908 100.527Z" fill="#2D2D2D"/>
<path d="M53.8061 112.494C50.9089 96.2379 61.5443 83.3695 67.5482 79.8297C64.0365 72.6491 61.4409 74.0581 56.3357 77.1194C38.4987 87.8153 40.7582 107.172 43.6613 116.432C51.0821 115.131 53.8866 114.122 53.8061 112.494Z" fill="black"/>
<ellipse rx="5.53448" ry="2.99382" transform="matrix(0.927865 -0.372915 0.420534 0.907277 48.8064 114.444)" fill="#2D2D2D"/>
<path opacity="0.6" fill-rule="evenodd" clip-rule="evenodd" d="M53.7259 112.023C51.1144 95.9898 61.6025 83.3353 67.5483 79.8298C67.1949 77.8926 62.7112 80.3649 58.1784 84.2216C46.5256 94.1365 45.2318 103.443 48.1349 112.703C48.1558 112.699 48.1767 112.696 48.1975 112.692C48.7084 114.267 49.4611 116.326 50.0636 117.161C52.8997 116.021 54.6351 113.881 53.9398 112.38C53.8815 112.255 53.8099 112.135 53.7259 112.023Z" fill="#2D2D2D"/>
<path opacity="0.5" d="M31.644 82.0359C31.5823 81.5626 32.9113 79.0751 33.5836 77.8904L43.4978 81.6622L51.9978 90.0774C51.8167 93.3099 50.8424 100.024 48.3936 101.022C45.9447 102.021 43.3149 101.648 41.8026 101.278C41.1921 100.508 40.1582 94.0948 40.8594 88.0575C37.4066 87.6572 31.7211 82.6276 31.644 82.0359Z" fill="black"/>
<path d="M39.6005 77.7128C42.3777 62.1556 57.2274 54.6485 64.3244 53.7283C63.3672 46.0262 60.3409 46.316 54.2884 47.1443C33.1419 50.0381 28.6701 68.1202 28.3138 77.4484C36.0244 79.049 39.1172 79.1928 39.6005 77.7128Z" fill="black"/>
<ellipse rx="5.63089" ry="2.9513" transform="matrix(1.01893 0.0126706 0.0996862 0.978446 34.0356 77.5908)" fill="#2D2D2D"/>
<path opacity="0.6" fill-rule="evenodd" clip-rule="evenodd" d="M39.684 77.2609C42.6649 62.0101 57.2955 54.6395 64.3235 53.7282C64.6465 51.8712 59.4056 52.4059 53.6387 54.1556C38.813 58.6535 34.3342 66.4617 33.9779 75.7899C34.0001 75.7945 34.0223 75.7991 34.0444 75.8037C34.0005 77.3969 34.0263 79.511 34.3277 80.4784C37.4964 80.5178 39.9334 79.2569 39.771 77.6621C39.7572 77.5274 39.728 77.3934 39.684 77.2609Z" fill="#2D2D2D"/>
<path d="M46.2496 83.1694C48.5948 67.3275 63.0628 59.2125 70.0454 58.0339C68.9042 50.2721 65.924 50.6708 59.9703 51.7198C39.1686 55.385 35.2149 73.8415 35.1008 83.2949C42.7535 84.6463 45.8102 84.6842 46.2496 83.1694Z" fill="black"/>
<ellipse rx="5.58579" ry="2.97129" transform="matrix(1.01433 -0.0228442 0.122513 0.980151 40.7525 83.2398)" fill="#2D2D2D"/>
<path opacity="0.6" fill-rule="evenodd" clip-rule="evenodd" d="M46.3203 82.7084C48.8748 67.1699 63.1296 59.2009 70.0441 58.0339C70.3156 56.1433 65.1555 56.8669 59.5071 58.8385C44.9862 63.9072 40.7638 71.9657 40.6497 81.4191C40.6719 81.423 40.6941 81.427 40.7162 81.4309C40.7134 83.0449 40.7928 85.1834 41.1149 86.152C44.244 86.0816 46.6177 84.7205 46.4166 83.1121C46.3996 82.976 46.3673 82.8412 46.3203 82.7084Z" fill="#2D2D2D"/>
<path d="M53.6518 95.0255C51.7258 78.6264 63.1071 66.4117 69.3108 63.2343C66.232 55.8579 63.5572 57.1105 58.2791 59.8635C39.8381 69.4824 40.9432 88.9392 43.2908 98.3555C50.7759 97.4967 53.6354 96.6554 53.6518 95.0255Z" fill="black"/>
<ellipse rx="5.53469" ry="2.99371" transform="matrix(0.948358 -0.317202 0.365888 0.930659 48.5454 96.676)" fill="#2D2D2D"/>
<path opacity="0.6" fill-rule="evenodd" clip-rule="evenodd" d="M53.5979 94.5437C51.9477 78.3874 63.1671 66.3804 69.3098 63.2343C69.0721 61.2795 64.4495 63.4814 59.6955 67.0625C47.474 76.2686 45.6295 85.4815 47.9771 94.8978C47.9995 94.8952 48.0218 94.8927 48.044 94.8902C48.4604 96.4931 49.0896 98.5934 49.6414 99.4623C52.5403 98.4926 54.3999 96.4592 53.7949 94.9204C53.7432 94.7889 53.6772 94.6631 53.5979 94.5437Z" fill="#2D2D2D"/>
<path opacity="0.5" d="M36.5638 55.797L38.3019 54.0605V52.7581L46.4126 55.2181L58.2891 71.4255L50.6128 81.4103C45.3988 82.3365 41.102 80.5421 39.6054 79.5291L43.2262 66.0713C39.6054 65.203 39.1709 61.5853 39.026 61.0065C38.9102 60.5434 39.6537 58.7876 40.0399 57.9676C39.2288 57.6203 37.3846 56.3758 36.5638 55.797Z" fill="black"/>
</g>
<path d="M47.3428 56.9109C57.0646 44.4459 73.7047 44.7292 80.4115 47.224C83.1619 39.9655 80.3498 38.8109 74.6099 36.7218C54.5551 29.4227 42.1552 43.3308 37.4836 51.4151C43.5559 56.4256 46.2241 57.9946 47.3428 56.9109Z" fill="black"/>
<ellipse rx="5.62991" ry="2.95169" transform="matrix(0.895447 0.486319 -0.368733 0.91174 42.4763 54.2085)" fill="#2D2D2D"/>
<path opacity="0.6" fill-rule="evenodd" clip-rule="evenodd" d="M47.628 56.5498C57.387 44.4516 73.7688 44.7535 80.4103 47.2239C81.5631 45.7321 76.6781 43.7616 70.7603 42.6206C55.547 39.6871 47.939 44.505 43.2675 52.5893C43.2851 52.6039 43.3028 52.6185 43.3203 52.633C42.5374 54.0216 41.573 55.9034 41.3877 56.8996C44.1719 58.4117 46.9162 58.4327 47.5173 56.9464C47.5682 56.8205 47.605 56.688 47.628 56.5498Z" fill="#2D2D2D"/>
<path d="M50.6758 64.8375C60.1485 51.9192 76.7348 51.4869 83.461 53.6998C86.0766 46.3027 83.2545 45.266 77.4987 43.4182C57.3887 36.9621 45.2723 51.4429 40.7565 59.7509C46.8938 64.5139 49.5797 65.9724 50.6758 64.8375Z" fill="black"/>
<ellipse rx="5.58487" ry="2.97165" transform="matrix(0.907942 0.452746 -0.349353 0.923911 45.7787 62.337)" fill="#2D2D2D"/>
<path opacity="0.6" fill-rule="evenodd" clip-rule="evenodd" d="M50.9521 64.4645C60.4681 51.9112 76.7983 51.5085 83.4592 53.7C84.5823 52.1543 79.6804 50.3888 73.7638 49.4993C58.5533 47.2126 51.0552 52.3715 46.5394 60.6795C46.5571 60.6932 46.5747 60.7069 46.5923 60.7206C45.8361 62.1468 44.9073 64.0756 44.7399 65.0826C47.5404 66.4791 50.2754 66.382 50.8488 64.8656C50.8972 64.7376 50.9315 64.6035 50.9521 64.4645Z" fill="#2D2D2D"/>
<path d="M50.1485 77.9645C56.1037 62.5623 71.8746 57.0649 78.8454 57.1467C79.5672 49.1873 76.6165 49.0482 70.6625 49.0225C49.8599 48.9327 41.7507 66.6567 39.4295 76.0794C46.4508 78.8094 49.3728 79.3985 50.1485 77.9645Z" fill="black"/>
<ellipse rx="5.535" ry="2.99341" transform="matrix(0.986863 0.16156 -0.111038 0.993816 44.8613 77.0436)" fill="#2D2D2D"/>
<path opacity="0.6" fill-rule="evenodd" clip-rule="evenodd" d="M50.3255 77.5164C56.4105 62.4555 71.9425 57.0657 78.8452 57.1467C79.5479 55.3071 74.431 55.0995 68.5539 56.0504C53.445 58.4952 47.511 65.7838 45.1898 75.2065C45.2103 75.2145 45.2308 75.2225 45.2511 75.2305C44.8709 76.8422 44.4466 78.9929 44.5289 80.0186C47.5456 80.5125 50.1399 79.5809 50.3234 77.938C50.339 77.7987 50.3395 77.6579 50.3255 77.5164Z" fill="#2D2D2D"/>
<path d="M151.087 92.9914C147.493 75.4308 130.313 65.5143 122.175 63.7352C123.062 55.2903 126.529 55.9351 133.471 57.5005C157.726 62.9701 163.326 83.5137 163.984 93.9033C155.212 94.8562 151.68 94.6855 151.087 92.9914Z" fill="black"/>
<ellipse rx="6.57945" ry="3.18357" transform="matrix(-0.996707 -0.081091 -0.0812334 0.996695 157.447 93.4504)" fill="#2D2D2D"/>
<path opacity="0.6" fill-rule="evenodd" clip-rule="evenodd" d="M150.977 92.478C147.157 75.2374 130.233 65.4967 122.173 63.735C121.754 61.6399 127.761 62.7929 134.401 65.3503C151.472 71.925 156.803 81.0682 157.462 91.4579C157.436 91.4607 157.41 91.4635 157.384 91.4663C157.477 93.239 157.505 95.5822 157.186 96.6235C153.565 96.3289 150.744 94.6694 150.887 92.9169C150.899 92.7679 150.93 92.6213 150.977 92.478Z" fill="#2D2D2D"/>
<path d="M138.996 101.325C142.981 83.8485 131.433 67.7285 124.756 62.75C129.055 55.4249 131.947 57.4429 137.622 61.7331C157.451 76.7222 154.06 97.7426 150.365 107.477C141.982 104.725 138.835 103.112 138.996 101.325Z" fill="black"/>
<ellipse rx="6.57812" ry="3.18422" transform="matrix(-0.874403 -0.4852 -0.485854 0.87404 144.599 104.367)" fill="#2D2D2D"/>
<path opacity="0.6" fill-rule="evenodd" clip-rule="evenodd" d="M139.109 100.813C142.757 83.5346 131.369 67.6796 124.757 62.7498C125.241 60.6686 130.235 64.197 135.225 69.2661C148.055 82.2978 149.131 92.8245 145.437 102.559C145.412 102.551 145.388 102.543 145.363 102.535C144.715 104.187 143.772 106.333 143.051 107.15C139.875 105.387 137.992 102.712 138.846 101.175C138.919 101.045 139.007 100.924 139.109 100.813Z" fill="#2D2D2D"/>
<path d="M126.612 104.545C130.901 87.1409 119.636 70.8223 113.047 65.7284C117.472 58.4792 120.329 60.5473 125.928 64.9355C145.493 80.2675 141.736 101.226 137.872 110.894C129.538 107.997 126.42 106.329 126.612 104.545Z" fill="black"/>
<ellipse rx="6.57804" ry="3.18426" transform="matrix(-0.865823 -0.50035 -0.501014 0.86544 132.158 107.684)" fill="#2D2D2D"/>
<path opacity="0.6" fill-rule="evenodd" clip-rule="evenodd" d="M126.731 104.037C130.68 86.8239 119.57 70.7726 113.045 65.7283C113.565 63.6559 118.497 67.2706 123.398 72.4258C135.999 85.6788 136.891 96.2226 133.028 105.891C133.004 105.883 132.979 105.874 132.955 105.866C132.279 107.507 131.298 109.636 130.564 110.44C127.418 108.622 125.582 105.915 126.464 104.393C126.538 104.264 126.627 104.145 126.731 104.037Z" fill="#2D2D2D"/>
<path d="M115.687 106.857C122.868 90.4314 114.536 72.4406 108.907 66.304C114.498 59.9096 116.962 62.4317 121.736 67.7051C138.415 86.13 131.155 106.148 125.706 115.022C117.984 110.754 115.195 108.583 115.687 106.857Z" fill="black"/>
<ellipse rx="6.57714" ry="3.18473" transform="matrix(-0.768463 -0.639894 -0.640554 0.767913 120.622 110.891)" fill="#2D2D2D"/>
<path opacity="0.6" fill-rule="evenodd" clip-rule="evenodd" d="M115.892 106.374C122.704 90.0802 114.48 72.3804 108.906 66.3039C109.771 64.3497 114.017 68.7477 117.972 74.6587C128.141 89.8547 127.231 100.397 121.782 109.271C121.76 109.258 121.737 109.245 121.714 109.233C120.769 110.736 119.44 112.668 118.58 113.336C115.788 111.012 114.439 108.032 115.566 106.682C115.662 106.567 115.771 106.464 115.892 106.374Z" fill="#2D2D2D"/>
<path d="M117.96 100.367C118.423 99.4409 118.732 97.6658 118.829 96.894C127.374 86.9092 145.362 62.5404 147.216 63.4665C149.07 64.3926 154.554 69.7854 155.906 71.2807L148.954 75.7666C149.823 78.8055 149.534 84.015 147.216 85.1727C145.362 86.0988 141.037 86.2339 139.105 86.1856L138.381 90.8163C138.14 91.5881 137.165 93.2474 135.195 93.7105C133.225 94.1735 129.933 93.5175 128.532 93.1316C128.648 94.2893 127.519 97.6658 126.939 99.2094C124.274 100.483 119.842 100.512 117.96 100.367Z" fill="black"/>
<path d="M144.476 68.8368C136.295 52.8853 117.081 47.9419 108.763 48.4116C107.348 40.0389 110.862 39.7297 117.969 39.3752C142.803 38.1368 153.718 56.4238 157.145 66.2552C148.951 69.5266 145.502 70.3098 144.476 68.8368Z" fill="black"/>
<ellipse rx="6.57927" ry="3.18368" transform="matrix(-0.981922 0.189288 0.189607 0.98186 150.725 67.5729)" fill="#2D2D2D"/>
<path opacity="0.6" fill-rule="evenodd" clip-rule="evenodd" d="M144.231 68.3729C135.918 52.7893 116.997 47.9465 108.76 48.4116C107.793 46.5059 113.889 46.0052 120.973 46.6872C139.184 48.4406 146.776 55.8178 150.203 65.6493C150.179 65.6589 150.155 65.6684 150.131 65.6779C150.697 67.3605 151.353 69.6101 151.327 70.6987C147.759 71.3865 144.596 70.5445 144.263 68.8181C144.234 68.6718 144.224 68.5231 144.231 68.3729Z" fill="#2D2D2D"/>
<path d="M135.07 80.1075C134.212 62.2039 118.756 49.7739 110.987 46.7696C113.159 38.5602 116.487 39.7284 123.106 42.3384C146.236 51.4573 148.618 72.6156 147.675 82.9834C138.86 82.5817 135.396 81.8722 135.07 80.1075Z" fill="black"/>
<ellipse rx="6.57918" ry="3.18375" transform="matrix(-0.972533 -0.232764 -0.233146 0.972442 141.283 81.5349)" fill="#2D2D2D"/>
<path opacity="0.6" fill-rule="evenodd" clip-rule="evenodd" d="M135.042 79.5848C133.912 61.9622 118.681 49.7446 110.987 46.7696C110.894 44.635 116.653 46.6941 122.823 50.2381C138.684 59.3492 142.549 69.2006 141.606 79.5684C141.581 79.5673 141.555 79.5661 141.529 79.565C141.349 81.331 141.017 83.6506 140.543 84.6309C137.009 83.7851 134.476 81.7134 134.886 80.0035C134.921 79.8586 134.973 79.7188 135.042 79.5848Z" fill="#2D2D2D"/>
<path d="M124.002 86.5329C123.457 68.6172 108.22 55.92 100.504 52.7809C102.819 44.6106 106.126 45.8365 112.699 48.5613C135.666 58.0814 137.679 79.278 136.555 89.6279C127.748 89.0728 124.297 88.3031 124.002 86.5329Z" fill="black"/>
<ellipse rx="6.57913" ry="3.18375" transform="matrix(-0.968335 -0.249655 -0.250065 0.968229 130.19 88.0684)" fill="#2D2D2D"/>
<path opacity="0.6" fill-rule="evenodd" clip-rule="evenodd" d="M123.984 86.0095C123.161 68.3701 108.146 55.8894 100.505 52.7809C100.45 50.645 106.171 52.8041 112.278 56.4549C127.978 65.8407 131.671 75.7579 130.548 86.1077C130.522 86.106 130.496 86.1044 130.471 86.1029C130.26 87.8655 129.887 90.1791 129.396 91.151C125.877 90.2439 123.381 88.1284 123.821 86.4259C123.858 86.2814 123.913 86.1424 123.984 86.0095Z" fill="#2D2D2D"/>
<path d="M114.098 91.6903C116.601 73.9416 103.74 58.8468 96.6683 54.4458C100.336 46.7861 103.387 48.5546 109.403 52.3536C130.421 65.6271 128.807 86.8577 125.944 96.8672C117.359 94.828 114.088 93.4847 114.098 91.6903Z" fill="black"/>
<ellipse rx="6.57854" ry="3.18408" transform="matrix(-0.912019 -0.410147 -0.410738 0.911753 119.938 94.252)" fill="#2D2D2D"/>
<path opacity="0.6" fill-rule="evenodd" clip-rule="evenodd" d="M114.167 91.1731C116.351 73.6489 103.671 58.804 96.6685 54.4458C96.9762 52.3314 102.249 55.4286 107.647 60.0613C121.527 71.9711 123.483 82.3705 120.619 92.38C120.595 92.3741 120.57 92.3683 120.545 92.3625C120.039 94.0638 119.279 96.2805 118.629 97.1549C115.316 95.6648 113.215 93.1571 113.937 91.5538C113.998 91.4185 114.075 91.2914 114.167 91.1731Z" fill="#2D2D2D"/>
<path d="M134.905 43.0626C134.094 42.5996 131.381 41.8085 130.125 41.4709L112.021 72.2937C113.527 74.146 114.29 80.1079 114.483 82.8574C118.828 82.4233 123.318 79.6738 124.042 78.2267C124.622 77.0691 120.711 68.9172 118.683 65.9265C124.911 66.5054 127.953 62.8877 128.677 61.1512C129.256 59.762 127.615 57.0029 126.36 54.9287C133.891 52.2661 135.195 45.9086 134.905 43.0626Z" fill="black"/>
<path d="M121.534 51.4294C107.686 40.035 88.0871 43.1206 80.6395 46.8517C76.0133 39.7287 79.1152 38.0509 85.4979 34.9057C107.798 23.917 125.083 36.3703 132.135 44.0342C125.915 50.2874 123.061 52.3742 121.534 51.4294Z" fill="black"/>
<ellipse rx="6.57767" ry="3.18447" transform="matrix(-0.826175 0.563413 0.564086 0.825716 126.767 47.7898)" fill="#2D2D2D"/>
<path opacity="0.6" fill-rule="evenodd" clip-rule="evenodd" d="M121.127 51.1013C107.304 40.0949 88.0126 43.1568 80.6374 46.8516C78.9926 45.4861 84.3881 42.6083 91.1607 40.424C108.572 34.8084 118.472 38.5671 125.524 46.2309C125.506 46.2489 125.488 46.2668 125.47 46.2847C126.659 47.6045 128.155 49.4093 128.563 50.4192C125.562 52.466 122.325 52.9479 121.332 51.4957C121.249 51.3731 121.18 51.2413 121.127 51.1013Z" fill="#2D2D2D"/>
<path d="M116.46 62.9432C103.929 50.1164 84.1111 51.0617 76.3027 53.9643C72.4763 46.3823 75.742 45.0503 82.4283 42.6148C105.789 34.1055 121.622 48.3572 127.801 56.7394C120.939 62.2823 117.876 64.0478 116.46 62.9432Z" fill="black"/>
<ellipse rx="6.57821" ry="3.18419" transform="matrix(-0.88235 0.470594 0.471239 0.882006 122.057 59.8919)" fill="#2D2D2D"/>
<path opacity="0.6" fill-rule="evenodd" clip-rule="evenodd" d="M116.09 62.5731C103.543 50.135 84.0328 51.0899 76.3003 53.9643C74.8133 52.4288 80.4892 50.1522 87.4588 48.714C105.376 45.0168 114.81 49.8253 120.99 58.2076C120.97 58.2236 120.95 58.2395 120.931 58.2554C121.969 59.696 123.261 61.6522 123.557 62.7004C120.351 64.4101 117.081 64.5386 116.252 62.9876C116.182 62.8566 116.128 62.718 116.09 62.5731Z" fill="#2D2D2D"/>
<path d="M111.585 77.0689C103.011 61.3247 83.6801 56.8581 75.3763 57.5334C73.7541 49.1982 77.2591 48.8021 84.356 48.272C109.152 46.4197 120.516 64.4311 124.186 74.1748C116.075 77.6478 112.647 78.516 111.585 77.0689Z" fill="black"/>
<ellipse rx="6.57924" ry="3.18372" transform="matrix(-0.976939 0.213519 0.213875 0.976861 117.8 75.6507)" fill="#2D2D2D"/>
<path opacity="0.6" fill-rule="evenodd" clip-rule="evenodd" d="M111.331 76.6134C102.635 61.2384 83.5985 56.8646 75.3753 57.5334C74.3615 55.6521 80.4428 55.0008 87.5415 55.5074C105.791 56.8098 113.564 63.997 117.233 73.7407C117.209 73.7507 117.186 73.7606 117.163 73.7706C117.771 75.4387 118.482 77.6717 118.482 78.7607C114.933 79.5366 111.75 78.7731 111.374 77.0555C111.342 76.9106 111.328 76.7629 111.331 76.6134Z" fill="#2D2D2D"/>
<path fill-rule="evenodd" clip-rule="evenodd" d="M128.043 98.6974C121.491 101.359 114.895 105.191 110.815 107.911L111.618 109.115C115.64 106.433 122.149 102.654 128.588 100.038C131.808 98.7301 134.984 97.7241 137.806 97.2844C140.646 96.8419 143.027 96.9888 144.736 97.8693L145.398 96.5829C143.288 95.4953 140.541 95.3938 137.584 95.8545C134.609 96.318 131.319 97.3669 128.043 98.6974ZM111.538 134.097C110.728 133.882 109.867 133.653 108.929 133.424L108.586 134.829C109.445 135.04 110.262 135.257 111.051 135.466C113.175 136.03 115.089 136.538 117.04 136.703C119.782 136.936 122.618 136.507 126.415 134.786L125.818 133.468C122.209 135.103 119.62 135.47 117.162 135.262C115.346 135.107 113.61 134.647 111.538 134.097Z" fill="white"/>
<path d="M62.1779 100.699C82.5461 100.583 103.358 105.185 111.218 107.5C107.167 114.446 105.721 124.721 109.771 135.14C96.492 142.665 65.2667 154.415 46.5989 141.217C43.2512 137.797 39.4206 132.293 37.5856 124.721C34.8081 113.26 44.2399 104.799 49.3031 102.001C52.0805 101.538 57.5487 100.725 62.1779 100.699Z" fill="#F7F7F7"/>
<path d="M112.808 108.658C112.113 107.5 109.046 106.584 107.31 106.487C106.443 107.356 104.649 111.437 104.417 120.814C104.128 132.535 106.443 135.863 106.732 136.587C106.947 137.124 110.782 135.14 111.65 134.706C112.518 134.272 112.518 133.403 111.65 131.522C109.783 127.475 110.782 115.749 111.65 113.144C112.345 111.06 112.518 109.43 112.808 108.658Z" fill="#EDEDED"/>
<path d="M55.6677 110.25C65.8518 108.861 86.3357 115.459 95.3047 118.932C62.2064 110.597 42.7447 115.459 37.1511 118.932C39.08 116.617 45.4836 111.639 55.6677 110.25Z" fill="#EDEDED"/>
<path d="M83.7318 127.325C76.2095 130.895 57.2879 136.355 41.7803 129.641C49.0133 135.429 67.5299 143.07 83.7318 127.325Z" fill="#EDEDED"/>
<path fill-rule="evenodd" clip-rule="evenodd" d="M35.396 92.6717L49.5907 92.1614L49.7354 89.1225L35.3314 89.7782L35.396 92.6717Z" fill="black"/>
<path fill-rule="evenodd" clip-rule="evenodd" d="M86.0319 74.5732C93.9036 75.8135 99.371 83.8804 97.9658 92.8043C96.5607 101.728 88.8791 107.723 81.0074 106.483C73.1357 105.243 67.6683 97.1757 69.0735 88.2518C70.4787 79.328 78.1602 73.3329 86.0319 74.5732ZM101.047 89.6739C100.897 80.804 95.0006 73.0565 86.4821 71.7143C76.8336 70.194 67.8613 77.5275 66.2428 87.8058C66.2425 87.8079 66.2422 87.8099 66.2419 87.812C65.9441 87.6921 65.6193 87.5767 65.2729 87.4759C64.2199 87.1696 62.8939 86.9818 61.5135 87.2701C61.3372 83.6528 60.2855 80.3313 58.5744 77.7083C56.4472 74.4477 53.2441 72.2024 49.4357 72.0031C45.6331 71.804 42.1587 73.6935 39.608 76.6929C37.0565 79.6933 35.3558 83.8724 35.0327 88.5142C34.7095 93.1557 35.8175 97.4912 37.9429 100.749C40.07 104.01 43.2732 106.255 47.0815 106.454C50.8841 106.653 54.3585 104.764 56.9092 101.765C59.3955 98.8409 61.0738 94.7982 61.4571 90.2987C62.4491 89.8927 63.501 89.9741 64.4718 90.2565C65.0767 90.4324 65.605 90.6761 65.9897 90.8823C65.9223 99.9594 71.879 107.974 80.5572 109.342C90.2057 110.862 99.1781 103.529 100.797 93.2503C100.829 93.0429 100.859 92.8357 100.885 92.6288L125.894 88.599C130.586 87.9498 135.269 88.1652 138.728 89.3267C142.197 90.4918 144.028 94.7779 144.083 97.4396L146.949 97.3707C146.857 92.9453 143.644 87.9257 139.64 86.5809C135.628 85.2336 130.464 85.0453 125.497 85.7346L125.482 85.7367L101.047 89.6739ZM56.1792 79.3047C57.9256 81.9817 58.909 85.6748 58.6254 89.7489C58.3418 93.8226 56.8524 97.3958 54.7368 99.8835C52.6204 102.372 49.9507 103.707 47.2384 103.565C44.5318 103.423 42.0827 101.827 40.338 99.1527C38.5916 96.4757 37.6082 92.7826 37.8919 88.7086C38.1755 84.6348 39.6649 81.0617 41.7804 78.574C43.8968 76.0853 46.5665 74.7507 49.2789 74.8927C51.9854 75.0343 54.4345 76.6304 56.1792 79.3047Z" fill="black"/>
</svg>
