<svg width="17" height="17" viewBox="0 0 17 17" fill="none" xmlns="http://www.w3.org/2000/svg">
<g clip-path="url(#clip0)">
<path d="M15.087 0H9.5586C9.01213 0 8.56759 0.444595 8.56759 0.991009C8.56759 1.53742 9.01213 1.98202 9.5586 1.98202H12.6945L7.46343 7.21307C7.27616 7.40023 7.1731 7.64906 7.1731 7.91386C7.1731 8.17866 7.2761 8.42743 7.46332 8.61442C7.65054 8.8018 7.89931 8.90493 8.1641 8.90493C8.42879 8.90493 8.67767 8.80186 8.86495 8.61459L14.096 3.38348V6.51942C14.096 7.06584 14.5406 7.51043 15.087 7.51043C15.6334 7.51043 16.078 7.06584 16.078 6.51942V0.991009C16.078 0.444595 15.6334 0 15.087 0Z" fill="white"/>
<path d="M11.39 14.3794H1.69863V4.68804H8.98742L10.6863 2.98917H0.849192C0.380077 2.98917 -0.000244141 3.36949 -0.000244141 3.8386V15.2288C-0.000244141 15.6979 0.380077 16.0782 0.849192 16.0782H12.2394C12.7085 16.0782 13.0888 15.6979 13.0888 15.2288V5.39171L11.39 7.09059V14.3794Z" fill="white"/>
</g>
<defs>
<clipPath id="clip0">
<rect width="16.0782" height="16.0782" fill="white"/>
</clipPath>
</defs>
</svg>
