<svg width="193" height="193" viewBox="0 0 193 193" fill="none" xmlns="http://www.w3.org/2000/svg">
<rect width="193" height="193" rx="96.5" fill="#5A5A5A"/>
<path d="M85.2773 44.2423C85.2773 44.2423 47.249 50.1925 50.1327 104.381C50.1432 104.581 45.7358 107.508 45.3905 107.82C42.3172 110.6 39.7387 114.16 38.6112 118.324C34.5961 133.152 48.9509 148.431 60.5592 152.487C64.8952 154.001 69.4783 154.737 74.0704 154.87C103.923 155.74 143.445 136.766 145.475 99.7118C145.548 98.3823 145.566 97.0514 145.532 95.7236C145.352 88.6878 143.654 81.8358 141.094 75.4736C141.096 75.4738 124.482 34.2643 85.2773 44.2423Z" fill="#A47539"/>
<g style="mix-blend-mode:multiply" opacity="0.5">
<path d="M49.1709 104.95C49.5822 105.959 49.9929 107.249 50.1075 107.986C50.5967 111.15 49.5139 114.417 47.6339 116.765C45.8488 118.996 43.2998 120.443 40.8316 120.989C39.9984 121.173 38.9895 121.268 38.1072 121.298C39.0373 112.136 46.4945 106.637 49.1709 104.95Z" fill="#FEB3A4"/>
</g>
<g style="mix-blend-mode:multiply" opacity="0.5">
<path d="M102.771 129.032C95.7096 127.514 91.3273 120.072 92.9831 112.409C94.639 104.746 101.706 99.764 108.768 101.282C115.829 102.799 120.212 110.242 118.556 117.905C116.9 125.568 109.833 130.55 102.771 129.032Z" fill="#FEB3A4"/>
</g>
<path opacity="0.3" d="M68.1933 107.6C68.1933 107.6 62.1608 101.86 57.4907 107.256Z" fill="#633B1D"/>
<path d="M124.441 136.207C144.512 146.266 162.74 121.021 156.91 106.835C153.19 97.7857 142.336 97.0851 136.044 105.354C132.33 110.233 129.324 116.47 127.617 122.437" fill="#A47539"/>
<path opacity="0.3" d="M140.983 113.679C138.399 116.309 136.321 120.209 133.768 122.385C134.241 118.745 134.996 114.858 136.764 111.578C138.56 108.246 141.824 105.5 145.146 105.726C149.264 106.005 152.652 110.802 153.086 115.152C152.827 112.549 147.593 110.788 145.596 111.036C142.465 116.935 141.25 128.562 141.25 128.562C138.646 121.981 139.703 116.804 140.983 113.679Z" fill="#633B1D"/>
<path d="M61.6406 121.495C58.9363 121.57 56.3432 120.796 54.11 118.474C52.9415 117.261 51.7565 116.593 50.0799 117.631C46.0658 120.117 45.1207 126.329 46.1997 130.494C47.3843 135.064 50.953 138.749 55.0656 141.152C66.1321 147.618 74.6203 146.163 85.9446 142.029C94.8583 138.777 106.909 132.22 103.855 120.935C100.072 106.962 83.7687 113.671 74.57 117.44C70.6642 119.042 66.0074 121.374 61.6406 121.495Z" fill="white"/>
<mask id="mask0" mask-type="alpha" maskUnits="userSpaceOnUse" x="45" y="112" width="60" height="34">
<path d="M61.6398 121.496C58.9356 121.571 56.3425 120.797 54.1093 118.476C52.9408 117.262 51.7558 116.594 50.0792 117.632C46.0651 120.119 45.12 126.33 46.199 130.495C47.3836 135.065 50.9522 138.75 55.0649 141.153C66.1313 147.619 74.6196 146.164 85.9439 142.031C94.8576 138.778 106.909 132.221 103.854 120.936C100.071 106.963 83.768 113.672 74.5693 117.441C70.6635 119.043 66.0067 121.375 61.6398 121.496Z" fill="white"/>
</mask>
<g mask="url(#mask0)">
<path fill-rule="evenodd" clip-rule="evenodd" d="M98.561 137.015L86.976 107.768L85.3634 108.408L96.9484 137.654L98.561 137.015ZM74.7565 146.465L66.7546 115.776L65.0762 116.214L73.078 146.903L74.7565 146.465ZM50.9406 139.055L55.3559 116.556L53.6538 116.222L49.2385 138.721L50.9406 139.055Z" fill="#D1D3D4"/>
</g>
<path d="M74.3636 101.009C78.9932 97.3659 84.7232 98.1538 87.0898 99.0284C87.1084 99.0353 87.1206 99.0102 87.1077 98.9953C80.7407 91.6491 75.9627 97.2151 74.3331 100.988C74.3253 101.007 74.348 101.022 74.3636 101.009Z" fill="#2A1200"/>
<path d="M51.8954 98.4243C51.8999 100.726 52.9417 103.199 55.6079 102.915C57.8453 102.676 58.4166 99.7383 58.4137 98.2921C58.4088 95.7624 57.1416 93.3726 55.293 93.3691C53.3049 93.3653 51.8909 96.1222 51.8954 98.4243Z" fill="#2A1200"/>
<path d="M76.6185 80.6133C80.5743 79.9698 84.8133 81.4482 87.6589 84.4469C88.5764 85.4138 88.8331 87.1286 87.8744 88.2203C86.9888 89.2304 85.3777 89.5393 84.3957 88.503C84.1013 88.1924 83.794 87.898 83.468 87.6251C83.3667 87.5401 83.0852 87.3893 82.9965 87.2638C82.9472 87.2312 82.8989 87.1987 82.8485 87.1671C82.5377 86.9714 82.2182 86.7922 81.891 86.6298C81.7035 86.5369 81.5143 86.4507 81.3227 86.369C81.2623 86.3436 81.2017 86.3193 81.1401 86.2949C80.9719 86.2657 80.7789 86.1747 80.6255 86.1328C80.4255 86.078 80.2249 86.0301 80.0217 85.9878C79.6675 85.9141 79.3098 85.8585 78.9505 85.8224C78.9001 85.8173 78.8507 85.8134 78.8002 85.8095C78.6063 85.8104 78.4129 85.8068 78.2185 85.8146C77.8053 85.8318 77.3942 85.8779 76.9846 85.9437C75.7063 86.1521 74.3807 84.8934 74.3426 83.5109C74.3026 81.989 75.2492 80.8365 76.6185 80.6133Z" fill="#351700"/>
<path d="M50.0609 85.1575C51.4974 83.1804 53.6082 81.883 55.8852 81.5064C56.4997 81.4048 57.2171 81.6404 57.6965 82.0506C58.1688 82.4546 58.5653 83.1667 58.6065 83.8315C58.649 84.5217 58.5128 85.2624 58.0818 85.8051C57.645 86.3554 57.0968 86.7049 56.4296 86.8162C56.3203 86.8341 56.2141 86.8649 56.1053 86.8886C55.7844 86.9993 55.4741 87.1361 55.1714 87.2966C54.8272 87.5297 54.5048 87.7944 54.2032 88.0907C54.105 88.2084 54.001 88.3211 53.9097 88.4463C53.5159 88.9874 52.8845 89.3729 52.2575 89.4574C51.6572 89.5382 50.91 89.3452 50.4463 88.912C49.9657 88.4637 49.5802 87.8421 49.5362 87.1311C49.4921 86.4224 49.6446 85.7302 50.0609 85.1575Z" fill="#351700"/>
<mask id="mask1" mask-type="alpha" maskUnits="userSpaceOnUse" x="23" y="55" width="44" height="65">
<path d="M50.8457 84.7446C52.6958 70.9714 59.5824 60.9327 66.392 59.6907L36.3273 55.5793L23.2222 101.961L39.4109 119.306C38.383 111.083 46.1775 104.317 50.2033 101.961C49.6894 98.5692 50.4174 89.0701 50.8457 84.7446Z" fill="#C4C4C4"/>
</mask>
<g mask="url(#mask1)">
<path d="M42.3767 96.4906C44.0159 82.556 56.7699 75.1203 63.006 73.9309C61.7523 67.155 59.0877 67.5712 53.7718 68.6241C35.1985 72.3027 32.1919 88.5644 32.3681 96.8507C39.2805 97.8632 42.0268 97.8278 42.3767 96.4906Z" fill="#351700"/>
<ellipse rx="4.99509" ry="2.62033" transform="matrix(1.01789 -0.047841 0.15752 0.970808 37.4419 96.6757)" fill="#451E00"/>
<path opacity="0.6" fill-rule="evenodd" clip-rule="evenodd" d="M42.4279 96.0851C44.2639 82.4117 56.8308 75.1087 63.0061 73.9309C63.1942 72.268 58.5815 73.018 53.567 74.8724C40.6756 79.6399 37.1211 86.7961 37.2973 95.0824C37.3174 95.0854 37.3374 95.0883 37.3573 95.0913C37.4024 96.5056 37.5367 98.3779 37.8546 99.2195C40.6627 99.0875 42.7543 97.8416 42.5263 96.4367C42.507 96.3178 42.474 96.2004 42.4279 96.0851Z" fill="#240F00"/>
<path d="M48.5532 100.976C49.7947 86.8122 62.1787 78.8579 68.2998 77.4455C66.8801 70.6263 64.2621 71.1367 59.0452 72.38C40.818 76.7242 38.2899 93.2904 38.6873 101.675C45.5351 102.47 48.244 102.342 48.5532 100.976Z" fill="#351700"/>
<ellipse rx="4.95505" ry="2.6381" transform="matrix(1.01118 -0.0830507 0.180387 0.971161 43.689 101.328)" fill="#451E00"/>
<path opacity="0.6" fill-rule="evenodd" clip-rule="evenodd" d="M48.5926 100.564C50.0357 86.6576 62.2384 78.844 68.2998 77.4455C68.4405 75.7555 63.9093 76.6687 59.0115 78.7137C46.42 83.9708 43.1058 91.3355 43.5031 99.72C43.5231 99.7223 43.543 99.7247 43.5628 99.727C43.6455 101.158 43.8285 103.049 44.1648 103.89C46.932 103.663 48.9622 102.332 48.6994 100.917C48.6771 100.797 48.6413 100.679 48.5926 100.564Z" fill="#240F00"/>
<path d="M54.194 111.186C51.6239 96.7532 61.0585 85.3278 66.3844 82.1849C63.2692 75.8094 60.9667 77.0605 56.438 79.7785C40.615 89.275 42.6194 106.461 45.1946 114.683C51.7775 113.528 54.2654 112.632 54.194 111.186Z" fill="#351700"/>
<ellipse rx="4.91017" ry="2.65771" transform="matrix(0.927751 -0.373201 0.420227 0.907419 49.759 112.918)" fill="#451E00"/>
<path opacity="0.6" fill-rule="evenodd" clip-rule="evenodd" d="M54.1222 110.765C51.8075 96.5312 61.1104 85.2972 66.3844 82.185C66.0709 80.465 62.0935 82.6601 58.0725 86.0843C47.7354 94.8874 46.5877 103.15 49.163 111.372C49.1822 111.369 49.2013 111.365 49.2203 111.362C49.6736 112.761 50.3414 114.589 50.8758 115.33C53.3917 114.318 54.9312 112.417 54.3144 111.086C54.2622 110.973 54.1978 110.866 54.1222 110.765Z" fill="#240F00"/>
<path opacity="0.5" d="M34.5333 84.1438C34.4786 83.7235 35.6576 81.5149 36.2539 80.4631L45.0487 83.812L52.5889 91.2836C52.4283 94.1536 51.564 100.115 49.3917 101.001C47.2193 101.887 44.8865 101.556 43.5449 101.228C43.0034 100.545 42.0862 94.8504 42.7082 89.4902C39.6452 89.1347 34.6017 84.6691 34.5333 84.1438Z" fill="#220F01"/>
<path d="M41.5908 80.3053C44.0544 66.4927 57.2275 59.8274 63.5232 59.0103C62.674 52.1719 59.9894 52.4292 54.6203 53.1646C35.8615 55.7339 31.8946 71.7884 31.5785 80.0705C38.4185 81.4917 41.1621 81.6194 41.5908 80.3053Z" fill="#351700"/>
<ellipse rx="4.99509" ry="2.62032" transform="matrix(1.01894 0.0126815 0.0996001 0.978448 36.6539 80.197)" fill="#451E00"/>
<path opacity="0.6" fill-rule="evenodd" clip-rule="evenodd" d="M41.6662 79.9033C44.3109 66.3632 57.2891 59.8193 63.5235 59.0102C63.81 57.3615 59.1608 57.8362 54.045 59.3897C40.8933 63.3833 36.9202 70.3159 36.6041 78.598C36.624 78.6021 36.6438 78.6063 36.6636 78.6104C36.6246 80.0249 36.6475 81.9019 36.9149 82.7608C39.7259 82.7958 41.8877 81.6763 41.7436 80.2603C41.7314 80.1405 41.7053 80.0212 41.6662 79.9033Z" fill="#240F00"/>
<path d="M47.4905 85.1498C49.5709 71.0844 62.4053 63.8793 68.5995 62.833C67.5871 55.9415 64.9435 56.2955 59.6619 57.2269C41.209 60.4811 37.7017 76.868 37.6005 85.2613C44.3891 86.4612 47.1007 86.4948 47.4905 85.1498Z" fill="#351700"/>
<ellipse rx="4.95505" ry="2.6381" transform="matrix(1.01432 -0.0228645 0.122405 0.980158 42.614 85.2124)" fill="#451E00"/>
<path opacity="0.6" fill-rule="evenodd" clip-rule="evenodd" d="M47.5544 84.7403C49.8206 70.9444 62.4657 63.8691 68.5995 62.8329C68.8403 61.1543 64.2629 61.7968 59.2522 63.5474C46.3709 68.0476 42.6252 75.2025 42.524 83.5958C42.5438 83.5993 42.5635 83.6028 42.5831 83.6063C42.5807 85.0393 42.651 86.9381 42.9368 87.7981C45.7127 87.7355 47.8183 86.5271 47.64 85.099C47.6249 84.9781 47.5961 84.8583 47.5544 84.7403Z" fill="#240F00"/>
<path d="M54.0569 95.6766C52.3483 81.1165 62.4447 70.2714 67.9478 67.4503C65.2167 60.9011 62.8439 62.0132 58.1618 64.4576C41.8029 72.9978 42.7832 90.2728 44.8658 98.6332C51.5057 97.8707 54.0423 97.1238 54.0569 95.6766Z" fill="#351700"/>
<ellipse rx="4.91016" ry="2.65771" transform="matrix(0.948273 -0.317456 0.365607 0.93077 49.5268 97.1421)" fill="#451E00"/>
<path opacity="0.6" fill-rule="evenodd" clip-rule="evenodd" d="M54.0104 95.2516C52.5451 80.9056 62.4985 70.2439 67.948 67.4504C67.7372 65.7148 63.6365 67.6698 59.4193 70.8493C48.5777 79.0231 46.9414 87.2029 49.024 95.5633C49.0433 95.5611 49.0626 95.5589 49.0819 95.5567C49.4513 96.9798 50.0093 98.8443 50.4988 99.6157C53.0704 98.7548 54.72 96.9494 54.1833 95.5832C54.1379 95.4675 54.0799 95.3568 54.0104 95.2516Z" fill="#240F00"/>
<path opacity="0.5" d="M38.897 60.847L40.4387 59.3053V58.1489L47.6337 60.3331L58.1692 74.723L51.3597 83.5883C46.7343 84.4105 42.9227 82.8174 41.5951 81.918L44.8071 69.9692C41.5951 69.1983 41.2096 65.9863 41.0812 65.4724C40.9784 65.0612 41.6379 63.5023 41.9805 62.7743C41.261 62.4659 39.625 61.361 38.897 60.847Z" fill="#220F01"/>
</g>
<path d="M48.46 61.8361C57.0841 50.7689 71.8453 51.0204 77.7948 53.2354C80.2346 46.7909 77.7401 45.7658 72.6483 43.9109C54.8579 37.4303 43.8581 49.7788 39.714 56.9566C45.1006 61.4052 47.4676 62.7983 48.46 61.8361Z" fill="#351700"/>
<ellipse rx="4.99509" ry="2.62033" transform="matrix(0.895293 0.486663 -0.368463 0.911875 44.1438 59.4367)" fill="#451E00"/>
<path opacity="0.6" fill-rule="evenodd" clip-rule="evenodd" d="M48.7139 61.5157C57.3711 50.774 71.9033 51.042 77.7948 53.2354C78.8175 51.9108 74.484 50.1614 69.2344 49.1483C55.7388 46.5437 48.9899 50.8214 44.8458 57.9992C44.8615 58.0121 44.8771 58.025 44.8926 58.0379C44.1981 59.2708 43.3425 60.9416 43.1782 61.8261C45.6481 63.1686 48.0826 63.1872 48.6158 61.8676C48.6609 61.7559 48.6935 61.6382 48.7139 61.5157Z" fill="#240F00"/>
<path d="M51.4171 68.8737C59.8202 57.404 74.5337 57.0202 80.5005 58.985C82.8207 52.4173 80.3174 51.4969 75.2115 49.8562C57.3721 44.1241 46.6237 56.9811 42.6178 64.3575C48.0622 68.5864 50.4448 69.8814 51.4171 68.8737Z" fill="#351700"/>
<ellipse rx="4.95505" ry="2.6381" transform="matrix(0.907801 0.453072 -0.349091 0.924028 47.0747 66.6536)" fill="#451E00"/>
<path opacity="0.6" fill-rule="evenodd" clip-rule="evenodd" d="M51.6648 68.5415C60.1064 57.3967 74.5921 57.0393 80.5007 58.9849C81.497 57.6126 77.1486 56.045 71.9001 55.2553C58.4071 53.225 51.7556 57.8055 47.7497 65.1818C47.7656 65.1941 47.7813 65.2064 47.797 65.2186C47.1262 66.4849 46.3024 68.1972 46.1539 69.0912C48.6382 70.3311 51.0645 70.2448 51.5731 68.8986C51.6161 68.7846 51.6466 68.6652 51.6648 68.5415Z" fill="#240F00"/>
<path d="M50.9491 80.5288C56.2319 66.8536 70.2221 61.9726 76.4058 62.0453C77.0462 54.9784 74.4286 54.8549 69.1469 54.8321C50.6931 54.7523 43.4995 70.4889 41.4404 78.855C47.6689 81.2789 50.261 81.8019 50.9491 80.5288Z" fill="#351700"/>
<ellipse rx="4.91016" ry="2.65772" transform="matrix(0.98684 0.161697 -0.110942 0.993827 46.2588 79.7111)" fill="#451E00"/>
<path opacity="0.6" fill-rule="evenodd" clip-rule="evenodd" d="M51.1061 80.131C56.5041 66.7588 70.2824 61.9733 76.4058 62.0453C77.0291 60.4119 72.49 60.2276 67.2765 61.0719C53.8735 63.2425 48.6095 69.7138 46.5504 78.08C46.5685 78.0871 46.5866 78.0941 46.6046 78.1012C46.2673 79.5322 45.8909 81.4417 45.9639 82.3524C48.64 82.7908 50.9415 81.9638 51.1043 80.505C51.1181 80.3814 51.1185 80.2565 51.1061 80.131Z" fill="#240F00"/>
<path d="M140.491 93.8707C137.303 78.2792 122.063 69.4746 114.843 67.895C115.63 60.3971 118.706 60.9695 124.864 62.3595C146.38 67.2157 151.347 85.4557 151.932 94.6803C144.15 95.5263 141.016 95.3748 140.491 93.8707Z" fill="#351700"/>
<ellipse rx="5.8366" ry="2.82659" transform="matrix(-0.996701 -0.0811622 -0.0811621 0.996701 146.133 94.2783)" fill="#451E00"/>
<path opacity="0.6" fill-rule="evenodd" clip-rule="evenodd" d="M140.394 93.4164C137.006 78.1081 121.992 69.4592 114.843 67.895C114.471 66.0348 119.799 67.0585 125.69 69.3292C140.833 75.1666 145.562 83.2845 146.146 92.5092C146.124 92.5117 146.101 92.5141 146.079 92.5166C146.161 94.0905 146.186 96.1709 145.903 97.0955C142.69 96.8339 140.188 95.3605 140.315 93.8046C140.326 93.6728 140.352 93.5432 140.394 93.4164Z" fill="#240F00"/>
<path d="M129.767 101.27C133.302 85.7532 123.058 71.4407 117.135 67.0205C120.948 60.5168 123.513 62.3086 128.548 66.1176C146.138 79.426 143.129 98.0892 139.852 106.732C132.415 104.289 129.624 102.857 129.767 101.27Z" fill="#351700"/>
<ellipse rx="5.8366" ry="2.82659" transform="matrix(-0.874222 -0.485527 -0.485527 0.874222 134.736 103.971)" fill="#451E00"/>
<path opacity="0.6" fill-rule="evenodd" clip-rule="evenodd" d="M129.866 100.816C133.102 85.4749 123 71.3975 117.135 67.0204C117.564 65.1726 121.994 68.3054 126.421 72.8061C137.803 84.3764 138.757 93.7227 135.48 102.365C135.458 102.358 135.436 102.351 135.415 102.344C134.84 103.812 134.003 105.716 133.364 106.442C130.546 104.877 128.876 102.502 129.634 101.137C129.698 101.021 129.776 100.914 129.866 100.816Z" fill="#240F00"/>
<path d="M118.778 104.129C122.583 88.6764 112.59 74.1877 106.745 69.6649C110.67 63.2286 113.204 65.0648 118.171 68.961C135.527 82.5737 132.194 101.182 128.766 109.766C121.373 107.193 118.608 105.713 118.778 104.129Z" fill="#351700"/>
<ellipse rx="5.8366" ry="2.82659" transform="matrix(-0.865631 -0.500682 -0.500682 0.865632 123.7 106.916)" fill="#451E00"/>
<path opacity="0.6" fill-rule="evenodd" clip-rule="evenodd" d="M118.885 103.677C122.388 88.3947 112.533 74.1435 106.744 69.6649C107.206 67.8249 111.581 71.0343 115.929 75.6114C127.107 87.3783 127.898 96.7398 124.471 105.324C124.449 105.316 124.428 105.309 124.406 105.302C123.806 106.759 122.936 108.649 122.284 109.363C119.494 107.749 117.866 105.345 118.647 103.994C118.713 103.879 118.793 103.774 118.885 103.677Z" fill="#240F00"/>
<path d="M109.086 106.181C115.456 91.5978 108.065 75.6243 103.072 70.1759C108.032 64.4985 110.218 66.7377 114.452 71.4199C129.248 87.7787 122.808 105.552 117.974 113.431C111.124 109.642 108.65 107.714 109.086 106.181Z" fill="#351700"/>
<ellipse rx="5.83659" ry="2.82659" transform="matrix(-0.768188 -0.640224 -0.640224 0.768188 113.464 109.763)" fill="#451E00"/>
<path opacity="0.6" fill-rule="evenodd" clip-rule="evenodd" d="M109.269 105.754C115.312 91.2871 108.017 75.5711 103.072 70.1758C103.839 68.4407 107.606 72.3455 111.114 77.5937C120.135 91.0857 119.328 100.446 114.494 108.324C114.474 108.313 114.454 108.302 114.434 108.291C113.596 109.626 112.418 111.341 111.654 111.934C109.178 109.87 107.981 107.225 108.981 106.026C109.065 105.924 109.162 105.834 109.269 105.754Z" fill="#240F00"/>
<path d="M111.104 100.419C111.515 99.597 111.789 98.021 111.875 97.3357C119.455 88.4705 135.412 66.8343 137.057 67.6566C138.702 68.4788 143.567 73.2669 144.766 74.5946L138.599 78.5774C139.37 81.2755 139.113 85.9009 137.057 86.9287C135.412 87.751 131.575 87.8709 129.862 87.8281L129.22 91.9395C129.005 92.6247 128.14 94.098 126.393 94.5091C124.646 94.9203 121.725 94.3378 120.483 93.9952C120.586 95.0231 119.583 98.021 119.07 99.3914C116.706 100.522 112.774 100.548 111.104 100.419Z" fill="#220F01"/>
<path d="M134.626 72.4246C127.368 58.2618 110.323 53.8727 102.945 54.2898C101.689 46.8559 104.806 46.5813 111.112 46.2666C133.142 45.1671 142.824 61.4035 145.864 70.1325C138.595 73.037 135.536 73.7323 134.626 72.4246Z" fill="#351700"/>
<ellipse rx="5.83661" ry="2.82659" transform="matrix(-0.981891 0.189447 0.189448 0.981891 140.17 71.3023)" fill="#451E00"/>
<path opacity="0.6" fill-rule="evenodd" clip-rule="evenodd" d="M134.411 72.0131C127.036 58.1766 110.251 53.8768 102.944 54.2898C102.087 52.5977 107.494 52.1532 113.778 52.7587C129.933 54.3155 136.668 60.8654 139.708 69.5945C139.687 69.6029 139.666 69.6113 139.645 69.6198C140.147 71.1137 140.729 73.1112 140.705 74.0777C137.54 74.6884 134.734 73.9408 134.439 72.408C134.414 72.2782 134.404 72.1463 134.411 72.0131Z" fill="#240F00"/>
<path d="M126.282 82.4315C125.521 66.5356 111.81 55.4994 104.917 52.8319C106.844 45.5431 109.796 46.5803 115.669 48.8976C136.187 56.994 138.3 75.7797 137.463 84.985C129.644 84.6283 126.57 83.9983 126.282 82.4315Z" fill="#351700"/>
<ellipse rx="5.8366" ry="2.82659" transform="matrix(-0.972488 -0.232954 -0.232955 0.972488 131.794 83.6989)" fill="#451E00"/>
<path opacity="0.6" fill-rule="evenodd" clip-rule="evenodd" d="M126.256 81.9677C125.254 66.321 111.743 55.4733 104.918 52.8318C104.835 50.9366 109.943 52.7648 115.416 55.9115C129.487 64.0008 132.916 72.7476 132.079 81.9528C132.057 81.9518 132.034 81.9507 132.011 81.9497C131.852 83.5177 131.557 85.5773 131.136 86.4477C128.001 85.6968 125.755 83.8573 126.118 82.3392C126.149 82.2106 126.195 82.0866 126.256 81.9677Z" fill="#240F00"/>
<path d="M116.464 88.1364C115.98 72.2296 102.464 60.9562 95.619 58.1691C97.6724 50.915 100.606 52.0035 106.437 54.4227C126.811 62.8753 128.597 81.695 127.6 90.8842C119.787 90.3914 116.726 89.708 116.464 88.1364Z" fill="#351700"/>
<ellipse rx="5.8366" ry="2.82659" transform="matrix(-0.968282 -0.24986 -0.24986 0.968282 121.954 89.4996)" fill="#451E00"/>
<path opacity="0.6" fill-rule="evenodd" clip-rule="evenodd" d="M116.446 87.6724C115.717 72.0106 102.397 60.9291 95.6188 58.1691C95.5694 56.2727 100.645 58.1897 106.063 61.4312C119.99 69.7644 123.266 78.5696 122.269 87.7588C122.246 87.7574 122.224 87.756 122.201 87.7546C122.014 89.3195 121.684 91.3736 121.248 92.2365C118.126 91.4311 115.912 89.5528 116.302 88.0413C116.335 87.9133 116.384 87.7902 116.446 87.6724Z" fill="#240F00"/>
<path d="M107.68 92.7156C109.9 76.9571 98.4911 63.5549 92.218 59.6474C95.4717 52.8466 98.1783 54.4167 103.515 57.7898C122.16 69.5749 120.728 88.4248 118.188 97.312C110.572 95.5015 107.671 94.3088 107.68 92.7156Z" fill="#351700"/>
<ellipse rx="5.8366" ry="2.82659" transform="matrix(-0.911887 -0.410442 -0.410442 0.911887 112.859 94.99)" fill="#451E00"/>
<path opacity="0.6" fill-rule="evenodd" clip-rule="evenodd" d="M107.741 92.2553C109.678 76.6967 98.4303 63.5169 92.2182 59.6475C92.4912 57.7702 97.1683 60.52 101.958 64.6333C114.27 75.2076 116.005 84.4408 113.465 93.3279C113.443 93.3227 113.421 93.3174 113.399 93.3122C112.949 94.8228 112.275 96.7911 111.699 97.5676C108.759 96.2445 106.896 94.018 107.537 92.5945C107.591 92.4739 107.659 92.3607 107.741 92.2553Z" fill="#240F00"/>
<path d="M126.136 49.5406C125.417 49.1295 123.01 48.4271 121.896 48.1273L105.836 75.4939C107.172 77.1385 107.849 82.4319 108.02 84.873C111.875 84.4876 115.858 82.0465 116.5 80.7616C117.014 79.7338 113.545 72.496 111.746 69.8407C117.271 70.3546 119.969 67.1426 120.611 65.6008C121.125 64.3674 119.669 61.9177 118.556 60.0761C125.237 57.7121 126.393 52.0674 126.136 49.5406Z" fill="#220F01"/>
<path d="M114.274 56.9693C101.99 46.8526 84.6035 49.5922 77.9968 52.9049C73.8929 46.5806 76.6447 45.091 82.3067 42.2985C102.089 32.542 117.422 43.5989 123.678 50.4033C118.16 55.9554 115.629 57.8081 114.274 56.9693Z" fill="#351700"/>
<ellipse rx="5.8366" ry="2.82659" transform="matrix(-0.825946 0.56375 0.56375 0.825945 118.917 53.7379)" fill="#451E00"/>
<path opacity="0.6" fill-rule="evenodd" clip-rule="evenodd" d="M113.913 56.6769C101.651 46.9061 84.539 49.6246 77.9969 52.9049C76.5378 51.6926 81.3241 49.1375 87.332 47.198C102.777 42.2121 111.559 45.5494 117.815 52.3538C117.799 52.37 117.783 52.3861 117.767 52.4022C118.821 53.5739 120.148 55.176 120.51 56.0726C117.848 57.8898 114.976 58.3177 114.096 57.0283C114.021 56.9191 113.961 56.8016 113.913 56.6769Z" fill="#240F00"/>
<path d="M109.773 67.1922C98.6575 55.8037 81.0769 56.643 74.1502 59.2201C70.7559 52.4883 73.6529 51.3057 79.5841 49.1433C100.307 41.5881 114.352 54.2417 119.834 61.6841C113.746 66.6053 111.029 68.1729 109.773 67.1922Z" fill="#351700"/>
<ellipse rx="5.83659" ry="2.82659" transform="matrix(-0.882178 0.470916 0.470917 0.882178 114.739 64.483)" fill="#451E00"/>
<path opacity="0.6" fill-rule="evenodd" clip-rule="evenodd" d="M109.446 66.8627C98.3158 55.8203 81.0094 56.6681 74.1501 59.2202C72.831 57.8568 77.866 55.8355 84.0487 54.5586C99.9432 51.276 108.312 55.5453 113.794 62.9876C113.776 63.0019 113.758 63.0162 113.741 63.0304C114.662 64.3095 115.807 66.0461 116.07 66.9766C113.226 68.4946 110.325 68.6088 109.59 67.2316C109.528 67.1151 109.48 66.9917 109.446 66.8627Z" fill="#240F00"/>
<path d="M105.451 79.7339C97.8445 65.7551 80.6966 61.7893 73.3303 62.3889C71.8913 54.9884 75.0005 54.6368 81.2961 54.1661C103.292 52.5215 113.374 68.5132 116.629 77.1642C109.434 80.2478 106.393 81.0187 105.451 79.7339Z" fill="#351700"/>
<ellipse rx="5.83659" ry="2.82659" transform="matrix(-0.9769 0.213697 0.213697 0.9769 110.965 78.4747)" fill="#451E00"/>
<path opacity="0.6" fill-rule="evenodd" clip-rule="evenodd" d="M105.225 79.3276C97.5109 65.6781 80.6247 61.7951 73.3302 62.3889C72.4309 60.7186 77.8256 60.1403 84.1227 60.5901C100.311 61.7464 107.207 68.1277 110.461 76.7788C110.44 76.7877 110.42 76.7967 110.399 76.8057C110.938 78.2867 111.569 80.2692 111.569 81.236C108.42 81.9248 105.597 81.247 105.263 79.722C105.235 79.5928 105.223 79.461 105.225 79.3276Z" fill="#240F00"/>
<path fill-rule="evenodd" clip-rule="evenodd" d="M36.1955 95.4447L50.3795 94.9349L50.524 91.8983L36.1309 92.5535L36.1955 95.4447Z" fill="white"/>
<path fill-rule="evenodd" clip-rule="evenodd" d="M86.7915 77.3604C94.6572 78.5997 100.12 86.6605 98.7163 95.5775C97.3122 104.495 89.6365 110.485 81.7708 109.246C73.9051 108.006 68.442 99.9456 69.8461 91.0286C71.2502 82.1115 78.9258 76.121 86.7915 77.3604ZM101.795 92.4495C101.645 83.5864 95.7534 75.8449 87.2413 74.5037C77.6003 72.9846 68.6348 80.3124 67.0176 90.5829C67.0173 90.5849 67.0169 90.587 67.0166 90.5891C66.719 90.4692 66.3945 90.3539 66.0484 90.2532C64.9962 89.9471 63.6712 89.7595 62.2919 90.0475C62.1157 86.433 61.0649 83.1141 59.355 80.4931C57.2295 77.2349 54.0288 74.9913 50.2233 74.7922C46.4237 74.5933 42.9519 76.4813 40.4031 79.4785C37.8536 82.4766 36.1542 86.6524 35.8313 91.2907C35.5084 95.9286 36.6155 100.261 38.7393 103.516C40.8648 106.774 44.0655 109.018 47.871 109.217C51.6706 109.416 55.1424 107.528 57.6911 104.531C60.1755 101.61 61.8525 97.5699 62.2355 93.0738C63.2268 92.6681 64.2779 92.7495 65.2479 93.0316C65.8523 93.2074 66.3803 93.451 66.7647 93.657C66.6973 102.727 72.6494 110.736 81.321 112.102C90.9621 113.621 99.9276 106.294 101.545 96.0232C101.577 95.8159 101.607 95.6089 101.633 95.4022L126.623 91.3755C131.312 90.7268 135.991 90.942 139.447 92.1026C142.914 93.2668 144.743 97.5496 144.798 100.209L147.662 100.14C147.57 95.7184 144.36 90.7027 140.358 89.3588C136.35 88.0127 131.19 87.8245 126.226 88.5132L126.211 88.5154L101.795 92.4495ZM56.9617 82.0883C58.7067 84.7632 59.6894 88.4535 59.406 92.5244C59.1226 96.595 57.6343 100.165 55.5204 102.651C53.4056 105.138 50.7379 106.472 48.0277 106.33C45.3232 106.188 42.8759 104.593 41.1326 101.921C39.3876 99.2461 38.4049 95.5558 38.6883 91.4849C38.9717 87.4143 40.46 83.8439 42.5739 81.3581C44.6887 78.8713 47.3563 77.5378 50.0666 77.6796C52.7711 77.8211 55.2183 79.416 56.9617 82.0883Z" fill="white"/>
</svg>
