<svg width="30" height="30" viewBox="0 0 30 30" fill="none" xmlns="http://www.w3.org/2000/svg">
<path d="M15 0C6.717 0 0 6.717 0 15C0 23.283 6.717 30 15 30C23.283 30 30 23.283 30 15C30 6.717 23.283 0 15 0ZM21.8488 11.6954C21.8555 11.843 21.8587 11.9913 21.8587 12.1404C21.8587 16.6898 18.3957 21.936 12.0628 21.9363H12.063H12.0628C10.1184 21.9363 8.3091 21.3663 6.78543 20.3897C7.05482 20.4215 7.32903 20.4373 7.60666 20.4373C9.21982 20.4373 10.7043 19.8871 11.8829 18.9635C10.3757 18.9356 9.10492 17.9402 8.66638 16.5722C8.87627 16.6125 9.0921 16.6344 9.31343 16.6344C9.62769 16.6344 9.9321 16.5921 10.2214 16.5131C8.64601 16.1977 7.45926 14.8055 7.45926 13.1383C7.45926 13.1227 7.45926 13.1087 7.45972 13.0943C7.92366 13.3523 8.45421 13.5075 9.01909 13.5249C8.09464 12.908 7.48695 11.8536 7.48695 10.659C7.48695 10.0282 7.65747 9.43726 7.95319 8.92845C9.65103 11.0117 12.1884 12.3818 15.0499 12.5258C14.9908 12.2736 14.9604 12.0108 14.9604 11.7407C14.9604 9.84009 16.5024 8.29811 18.4037 8.29811C19.3941 8.29811 20.2885 8.71674 20.9168 9.38599C21.7012 9.23126 22.4377 8.9447 23.1031 8.55034C22.8456 9.35394 22.3 10.0282 21.5891 10.4546C22.2855 10.3713 22.9493 10.1866 23.5661 9.91241C23.1054 10.603 22.5211 11.2095 21.8488 11.6954Z" fill="white"/>
</svg>
